<svg width="54" height="54" viewBox="0 0 54 54" fill="none" xmlns="http://www.w3.org/2000/svg">
<g clip-path="url(#clip0_389_91)">
<path d="M5.36346 4.50171H18.4587V20.6329C17.4062 24.3219 14.0261 26.8645 10.221 26.8437C6.35521 26.8437 2.95491 24.1551 1.9834 20.362V7.96138C1.9834 6.04397 3.48115 4.50171 5.34322 4.50171H5.36346Z" fill="black"/>
<path d="M0.931152 30.7618C0.931152 30.7618 13.0953 -0.37525 25.8262 1.08365C38.5571 2.54254 39.0833 13.255 39.0833 13.255C39.0833 13.255 49.7093 11.4001 51.4904 14.3179C52.8667 16.5688 52.9881 23.634 52.9679 26.7602C52.9679 27.7398 52.6238 28.6776 51.9761 29.4071L50.7213 30.8868C50.195 31.512 49.4259 31.8664 48.6163 31.8664H25.3809C24.3689 31.8664 23.4379 31.3662 22.8914 30.5117L20.4424 26.7394" stroke="black" stroke-width="2" stroke-miterlimit="10"/>
<path d="M32.5253 31.8872L25.8259 45.7884L15.4023 39.2651" stroke="black" stroke-width="2" stroke-miterlimit="10"/>
<path d="M24.1663 17.3399C24.9488 17.3399 25.5831 16.0989 25.5831 14.568C25.5831 13.0372 24.9488 11.7961 24.1663 11.7961C23.3838 11.7961 22.7495 13.0372 22.7495 14.568C22.7495 16.0989 23.3838 17.3399 24.1663 17.3399Z" fill="black"/>
<path d="M32.5257 17.3399C33.3082 17.3399 33.9425 16.0989 33.9425 14.568C33.9425 13.0372 33.3082 11.7961 32.5257 11.7961C31.7432 11.7961 31.1089 13.0372 31.1089 14.568C31.1089 16.0989 31.7432 17.3399 32.5257 17.3399Z" fill="black"/>
<path d="M40.8037 17.3401H48.2317C48.2924 19.4242 46.5923 21.1749 44.5076 21.1749C42.4229 21.1749 40.743 19.4242 40.7834 17.3401H40.8037Z" fill="black"/>
<path d="M26.0893 53.9999C28.8615 53.9999 31.1088 51.7511 31.1088 48.9771C31.1088 46.2031 28.8615 43.9543 26.0893 43.9543C23.3171 43.9543 21.0698 46.2031 21.0698 48.9771C21.0698 51.7511 23.3171 53.9999 26.0893 53.9999Z" fill="black"/>
</g>
<defs>
<clipPath id="clip0_389_91">
<rect width="54" height="54" fill="white"/>
</clipPath>
</defs>
</svg>
