<svg width="101" height="80" viewBox="0 0 101 80" fill="none" xmlns="http://www.w3.org/2000/svg">
<path d="M17.0283 50.5901C20.1133 36.6219 29.5171 27.4294 38.9433 27.8975C44.7231 28.186 50.4327 31.5012 54.4693 36.6747C57.5824 40.6656 60.2856 48.0139 55.7971 52.1984C52.5689 55.2074 46.6628 53.131 46.8453 47.4051C46.9969 42.6575 50.3991 38.5329 53.4111 36.2136C57.3214 33.2011 62.1355 31.6772 66.6802 32.9301C73.0242 34.6792 78.0574 42.5484 79.0848 52.3497" fill="#F1F1FB"/>
<path d="M17.0283 50.5901C20.1133 36.6219 29.5171 27.4294 38.9433 27.8975C44.7231 28.186 50.4327 31.5012 54.4693 36.6747C57.5824 40.6656 60.2856 48.0139 55.7971 52.1984C52.5689 55.2074 46.6628 53.131 46.8453 47.4051C46.9969 42.6575 50.3991 38.5329 53.4111 36.2136C57.3214 33.2011 62.1355 31.6772 66.6802 32.9301C73.0242 34.6792 78.0574 42.5484 79.0848 52.3497" stroke="#34384D" stroke-width="8" stroke-miterlimit="10"/>
<path d="M36.4121 0.569336C36.8076 1.45713 37.207 2.33598 37.6094 3.20801C34.2343 3.40804 31.7002 6.87214 31.7002 10.8682C31.7004 14.9849 34.3901 18.5361 37.918 18.5361C40.311 18.5361 42.32 16.8845 43.3604 14.5605C43.7946 15.3345 44.2327 16.1036 44.6816 16.8643C43.1655 19.6112 40.6759 21.3555 37.918 21.3555C33.4601 21.3554 29.6545 16.76 29.6543 10.8682C29.6543 5.66507 32.6409 1.45882 36.4121 0.569336Z" fill="#34384D" stroke="#34384D"/>
<path d="M66.1396 7.16992C66.4032 7.76188 66.6703 8.35068 66.9395 8.93555C64.3682 9.1962 62.4912 11.862 62.4912 14.8828C62.4912 18.0636 64.5722 20.8515 67.3535 20.8516C69.1644 20.8516 70.6797 19.653 71.5127 17.958C71.7966 18.4607 72.0847 18.9603 72.376 19.4561C71.2322 21.4927 69.3865 22.7656 67.3535 22.7656C64.0437 22.7656 61.1701 19.3426 61.1699 14.8867C61.1699 10.998 63.3734 7.88039 66.1396 7.16992Z" fill="#34384D" stroke="#34384D"/>
<path d="M0 69.8977C0.788793 66.2763 1.58039 62.6549 2.36919 59.0335C2.66393 57.6856 3.24219 56.7037 4.09274 56.0738C4.9461 55.4438 5.8977 55.2995 6.96159 55.6338C8.22479 56.0315 9.05849 57.0345 9.47956 58.671C10.0438 58.0235 10.594 57.5976 11.1301 57.4005C11.6691 57.2035 12.2867 57.2035 12.9884 57.3935C14.1 57.6927 14.8832 58.3437 15.3436 59.3608C15.8039 60.3779 15.9106 61.7012 15.658 63.3341C15.1078 66.8887 14.5548 70.4432 14.0046 73.9977C12.6853 73.6774 11.3659 73.3361 10.0522 72.9806C10.6249 69.6689 11.1947 66.3572 11.7673 63.0455C11.8516 62.5528 11.8768 62.2185 11.8375 62.039C11.801 61.8595 11.6831 61.7469 11.4866 61.6906C11.1161 61.5885 10.8635 61.9158 10.7287 62.676C10.1364 66.0088 9.54693 69.3416 8.95463 72.6744C7.64091 72.3084 6.32719 71.9248 5.01908 71.5236C5.66191 68.233 6.30473 64.9425 6.94475 61.6519C7.03738 61.1697 7.06826 60.8389 7.03177 60.6524C6.99528 60.4694 6.88019 60.3462 6.68369 60.2864C6.31596 60.1738 6.04929 60.5187 5.88928 61.3246C5.23242 64.6116 4.57276 67.8952 3.9159 71.1822C2.60779 70.7705 1.30249 70.3411 0 69.8942L0 69.8977Z" fill="#34384D"/>
<path d="M21.2559 64.0309C20.7674 67.786 20.2818 71.5411 19.7934 75.2927C18.5723 75.0429 17.354 74.7789 16.1357 74.5009C16.6803 70.7598 17.2249 67.0153 17.7723 63.2742C18.9316 63.5382 20.0937 63.7916 21.2559 64.0274V64.0309ZM20.2145 58.6463C20.6748 58.7448 21.0482 59.0334 21.3345 59.505C21.618 59.9766 21.7275 60.4904 21.6573 61.0394C21.5815 61.6272 21.3569 62.0777 20.9836 62.3838C20.6103 62.6935 20.1667 62.7921 19.6615 62.683C19.1534 62.5739 18.7632 62.2923 18.4937 61.8454C18.2242 61.3984 18.1316 60.8776 18.2186 60.2934C18.2972 59.7443 18.5386 59.3079 18.9316 58.9842C19.3274 58.6604 19.7541 58.5478 20.2145 58.6463Z" fill="#34384D"/>
<path d="M30.6901 77.1191C29.4634 76.9573 28.2339 76.7813 27.01 76.5912C27.2206 74.4585 27.4311 72.3293 27.6416 70.1966C27.7062 69.5455 27.5125 69.1866 27.0606 69.1127C26.6171 69.0423 26.3588 69.3309 26.2914 69.9819C26.0697 72.1111 25.8451 74.2403 25.6233 76.3695C24.3994 76.1689 23.1756 75.9507 21.9517 75.7185C22.2043 73.6209 22.4569 71.5234 22.7096 69.4259C22.8864 67.9548 23.445 66.7934 24.3686 65.9312C25.2921 65.069 26.3307 64.7346 27.4957 64.9212C28.829 65.1358 29.8424 65.8749 30.5526 67.163C31.1084 68.166 31.3245 69.4857 31.187 71.1257C31.0214 73.1212 30.8558 75.1166 30.6873 77.1156L30.6901 77.1191Z" fill="#34384D"/>
<path d="M39.6562 62.3735C40.8071 62.4615 41.9609 62.5354 43.1118 62.5952C43.0051 65.7626 42.9012 68.93 42.7946 72.0974C42.7356 73.843 42.3033 75.2472 41.4752 76.296C41.0008 76.9013 40.4029 77.3694 39.6843 77.6896C38.9685 78.0134 38.2359 78.1436 37.4976 78.0803C36.0267 77.9536 34.8224 77.2568 33.9045 76.0074C32.9838 74.758 32.5992 73.2975 32.7255 71.6434C32.849 70.0386 33.4413 68.7154 34.48 67.649C35.5214 66.5826 36.6807 66.1146 37.9832 66.2272C38.1909 66.2448 38.5025 66.2941 38.9208 66.375C38.8394 67.9446 38.7608 69.5107 38.6794 71.0803C38.3987 70.7812 38.1123 70.6193 37.8204 70.5947C37.4499 70.563 37.1242 70.6967 36.8407 70.9959C36.5572 71.295 36.4 71.6716 36.3719 72.1291C36.3439 72.569 36.459 72.9632 36.72 73.3046C36.9783 73.6459 37.3039 73.836 37.6913 73.8677C38.6232 73.9486 39.1285 73.2236 39.2015 71.7068C39.3531 68.5957 39.5047 65.4846 39.6562 62.3735Z" fill="#34384D"/>
<path d="M45.1911 62.6897C46.721 62.746 48.248 62.7812 49.7779 62.7882C52.4923 62.7988 53.8706 64.0728 53.9127 66.7228C53.9324 68.0355 53.472 69.1406 52.5176 70.0204C53.9155 70.7278 54.6426 71.9948 54.6763 73.8565C54.7015 75.2818 54.3029 76.4326 53.4664 77.2949C53.0566 77.7066 52.6159 77.9952 52.1415 78.1606C51.6671 78.326 51.0299 78.4105 50.2242 78.407C49.9716 78.407 49.7161 78.407 49.4635 78.4035C49.4691 77.0661 49.4747 75.7253 49.4831 74.3879C49.7077 74.3879 49.9295 74.3879 50.154 74.3879C50.5498 74.3879 50.8277 74.3281 50.9906 74.2084C51.1534 74.0888 51.232 73.8811 51.232 73.5855C51.232 73.0822 50.9007 72.8324 50.2439 72.8324C49.9912 72.8324 49.7414 72.8324 49.4888 72.8288C49.4944 71.4387 49.5028 70.0521 49.5084 68.662C50.2186 68.6655 50.5723 68.3734 50.5723 67.7856C50.5723 67.2437 50.2551 66.9727 49.6207 66.9692C49.3849 66.9692 49.1491 66.9656 48.9133 66.9621C48.8852 70.7736 48.8572 74.585 48.8291 78.3964C47.4901 78.3823 46.1511 78.3472 44.8149 78.2979C44.9385 73.0928 45.0648 67.8877 45.1883 62.6826L45.1911 62.6897Z" fill="#34384D"/>
<path d="M60.9848 66.5154C61.055 68.0393 61.1224 69.5632 61.1926 71.0871C60.9343 70.9357 60.7041 70.8689 60.502 70.8829C59.8508 70.9252 59.5476 71.541 59.5925 72.7271C59.6627 74.529 59.7301 76.3308 59.8002 78.1363C58.5679 78.2102 57.3356 78.27 56.1033 78.3157C56.0556 76.2358 56.0079 74.1594 55.9601 72.0795C55.9236 70.4325 56.2689 69.1057 56.9875 68.0921C57.7061 67.0785 58.6746 66.5401 59.9097 66.4627C60.1848 66.4451 60.5441 66.4627 60.9876 66.5154H60.9848Z" fill="#34384D"/>
<path d="M65.54 66.2338C65.7898 70.0241 66.0369 73.8144 66.2867 77.6082C65.0572 77.7349 63.8277 77.8476 62.5954 77.9426C62.4045 74.1452 62.2136 70.3514 62.0255 66.554C63.1989 66.4625 64.3695 66.3534 65.5428 66.2338H65.54ZM63.4993 61.3243C63.9652 61.2821 64.3807 61.4475 64.7456 61.8205C65.1105 62.1936 65.3154 62.6581 65.3519 63.2107C65.3912 63.8054 65.2593 64.3087 64.9589 64.7205C64.6558 65.1322 64.2488 65.3645 63.7379 65.4103C63.227 65.456 62.7947 65.3012 62.4494 64.9492C62.1013 64.5973 61.9161 64.1187 61.8852 63.5274C61.8571 62.9714 62.0059 62.4751 62.3231 62.0423C62.6431 61.6059 63.0333 61.3701 63.4993 61.3278V61.3243Z" fill="#34384D"/>
<path d="M72.9477 61.0359C74.093 60.8564 75.2383 60.6593 76.3836 60.4517C76.7485 63.5874 77.1107 66.7266 77.4756 69.8623C77.6777 71.5903 77.4559 73.072 76.7963 74.2967C76.4173 75.0041 75.898 75.5988 75.2411 76.0845C74.5843 76.5702 73.8825 76.8658 73.147 76.9749C71.6817 77.1931 70.3961 76.7849 69.3069 75.7713C68.2178 74.7542 67.6227 73.4098 67.5048 71.7557C67.3897 70.1509 67.7743 68.7115 68.6388 67.4234C69.5062 66.1354 70.5757 65.4034 71.8754 65.2133C72.0803 65.1816 72.3947 65.1605 72.8186 65.1394C72.9702 66.6985 73.1246 68.261 73.2762 69.8201C72.9562 69.5914 72.6502 69.4999 72.3582 69.5421C71.9905 69.5949 71.6873 69.8025 71.4515 70.1615C71.2158 70.5205 71.1175 70.9287 71.1568 71.3827C71.1961 71.8226 71.3673 72.1816 71.6705 72.4561C71.9765 72.7306 72.3217 72.8432 72.7091 72.7834C73.6383 72.6461 74.0285 71.8156 73.8741 70.3093C73.5625 67.2158 73.2537 64.1223 72.9421 61.0323L72.9477 61.0359Z" fill="#34384D"/>
<path d="M84.634 69.81C84.8221 71.0981 85.013 72.3827 85.201 73.6707C84.707 74.0192 84.2214 74.2444 83.7385 74.35C82.5596 74.6104 81.4901 74.3007 80.5469 73.4314C79.6009 72.5622 79.0451 71.3726 78.8654 69.8804C78.6689 68.2651 78.9833 66.8151 79.7862 65.5165C80.589 64.2178 81.6641 63.4225 83.0255 63.1163C83.7498 62.9509 84.4712 62.9649 85.187 63.1585C85.9056 63.3486 86.5007 63.6899 86.9779 64.1862C87.7723 65.0062 88.3282 66.34 88.6369 68.2017C88.839 69.4264 89.0411 70.6512 89.2461 71.8794C89.5773 73.8749 89.3527 75.624 88.5527 77.1197C87.7527 78.6154 86.5316 79.5586 84.9147 79.9211C84.4207 80.0302 83.7779 80.0266 82.9891 79.907C82.8178 78.626 82.6466 77.3484 82.4754 76.0674C82.9947 76.268 83.4999 76.3138 83.9912 76.2047C84.6537 76.0604 85.1281 75.6908 85.4144 75.1101C85.7007 74.5295 85.7709 73.7728 85.6333 72.8402C85.4228 71.4324 85.2123 70.0282 85.0046 68.6205C84.8277 67.4415 84.3393 66.9488 83.5392 67.1318C83.1996 67.2093 82.9217 67.431 82.7112 67.8005C82.4978 68.17 82.4192 68.5572 82.4754 68.9619C82.5343 69.3912 82.7055 69.7221 82.9919 69.9543C83.2782 70.1866 83.6038 70.2605 83.9687 70.1796C84.2129 70.1233 84.4347 70.0036 84.6396 69.8171L84.634 69.81Z" fill="#34384D"/>
<path d="M100.065 65.0765C98.2824 65.6853 96.4971 66.2625 94.7034 66.808C94.5602 66.5124 94.462 66.2343 94.4114 65.9669C94.3412 65.5973 94.3272 65.2137 94.3693 64.8266C94.9644 64.6471 95.5595 64.4606 96.1546 64.2741C95.8627 63.4928 95.3939 63.2042 94.7399 63.4083C94.3048 63.542 93.9932 63.8693 93.8023 64.3937C93.6114 64.9181 93.5805 65.5234 93.7097 66.2167C93.8444 66.9382 94.0914 67.4802 94.4451 67.8462C94.7988 68.2122 95.1974 68.3248 95.6353 68.1911C95.9918 68.082 96.295 67.7688 96.5392 67.2479C97.4038 67.9834 98.2768 68.7084 99.1554 69.4299C98.3835 70.6089 97.401 71.3831 96.2276 71.7456C94.7932 72.1855 93.4795 71.9814 92.3117 71.1473C91.1412 70.3097 90.4225 69.0639 90.1418 67.4203C89.8611 65.7874 90.1025 64.2776 90.8492 62.8875C91.5931 61.4973 92.6402 60.6034 94.0016 60.1846C95.3322 59.7764 96.556 59.9594 97.6957 60.7442C98.8354 61.529 99.5877 62.708 99.933 64.2987C99.9695 64.4606 100.012 64.721 100.065 65.0835V65.0765Z" fill="#34384D"/>
<path d="M78.2411 29.537C78.2411 29.537 81.9867 32.3532 84.5962 30.9515C87.9927 29.1269 89.3456 18.8584 89.3456 18.8584C89.3456 18.8584 87.9566 20.5867 84.7872 20.484C81.6177 20.3812 80.7787 21.3662 79.6476 22.5311C77.53 24.7119 78.2411 29.537 78.2411 29.537Z" fill="#34384D" stroke="#34384D"/>
</svg>
