<svg width="150" height="90" viewBox="0 0 150 90" fill="none" xmlns="http://www.w3.org/2000/svg">
<path d="M25.5254 56.9148C30.1499 41.2004 44.2464 30.8588 58.3766 31.3854C67.0406 31.7101 75.5995 35.4397 81.6505 41.2598C86.3171 45.7497 90.3693 54.0166 83.6409 58.7242C78.8018 62.1093 69.9483 59.7734 70.2218 53.3317C70.4491 47.9906 75.549 43.3503 80.0641 40.7412C85.9258 37.352 93.1423 35.6377 99.9549 37.0472C109.465 39.0149 117.01 47.8679 118.55 58.8944" fill="#7AC943"/>
<path d="M25.5254 56.9148C30.1499 41.2004 44.2464 30.8588 58.3766 31.3854C67.0406 31.7101 75.5995 35.4397 81.6505 41.2598C86.3171 45.7497 90.3693 54.0166 83.6409 58.7242C78.8018 62.1093 69.9483 59.7734 70.2218 53.3317C70.4491 47.9906 75.549 43.3503 80.0641 40.7412C85.9258 37.352 93.1423 35.6377 99.9549 37.0472C109.465 39.0149 117.01 47.8679 118.55 58.8944" stroke="#009245" stroke-width="8" stroke-miterlimit="10"/>
<path d="M64.8652 15.0413C63.6449 18.1018 60.5142 20.2913 56.8407 20.2913C52.1152 20.2913 48.2692 16.6725 48.2692 12.2262C48.2692 7.77996 52.1152 4.16119 56.8407 4.16119C57.0848 4.16119 57.3246 4.17703 57.5645 4.19682C56.7061 2.81504 55.8603 1.41742 55.0229 0C48.6395 0.835406 43.7036 5.99433 43.7036 12.2262C43.7036 19.0401 49.5947 24.5871 56.8407 24.5871C61.4442 24.5871 65.4964 22.3422 67.8402 18.9609C66.8219 17.6742 65.833 16.3676 64.861 15.0452L64.8652 15.0413Z" fill="#009245"/>
<path d="M107.087 18.8936C106.157 21.2296 103.767 22.8965 100.965 22.8965C97.3587 22.8965 94.4257 20.1368 94.4257 16.7438C94.4257 13.3507 97.3587 10.5911 100.965 10.5911C101.15 10.5911 101.335 10.6029 101.516 10.6188C100.86 9.5656 100.216 8.4966 99.5804 7.41968C94.7077 8.05712 90.9458 11.9926 90.9458 16.7477C90.9458 21.9462 95.4398 26.1747 100.965 26.1747C104.478 26.1747 107.567 24.4643 109.355 21.8829C108.581 20.901 107.824 19.9032 107.083 18.8976L107.087 18.8936Z" fill="#009245"/>
<path d="M0 78.6352C1.18242 74.5611 2.36905 70.4871 3.55148 66.413C3.99331 64.8966 4.86014 63.7919 6.13514 63.0832C7.41434 62.3745 8.84082 62.2122 10.4356 62.5883C12.3292 63.0357 13.5789 64.1641 14.2101 66.0052C15.0559 65.2767 15.8807 64.7976 16.6844 64.5759C17.4923 64.3542 18.418 64.3542 19.47 64.568C21.1363 64.9045 22.3103 65.637 23.0004 66.7812C23.6905 67.9254 23.8504 69.4141 23.4717 71.2512C22.647 75.2501 21.818 79.2489 20.9933 83.2478C19.0156 82.8875 17.0378 82.5034 15.0685 82.1036C15.9269 78.3779 16.7812 74.6522 17.6396 70.9265C17.7658 70.3722 17.8037 69.9961 17.7448 69.7942C17.6901 69.5923 17.5133 69.4656 17.2188 69.4022C16.6633 69.2874 16.2846 69.6556 16.0826 70.5108C15.1948 74.2602 14.3111 78.0097 13.4232 81.7591C11.4539 81.3473 9.48463 80.9158 7.52375 80.4644C8.48736 76.7625 9.45097 73.0606 10.4104 69.3587C10.5492 68.8162 10.5955 68.4441 10.5408 68.2342C10.4861 68.0284 10.3136 67.8898 10.019 67.8225C9.4678 67.6958 9.06805 68.0838 8.8282 68.9905C7.84355 72.6884 6.85469 76.3824 5.87004 80.0804C3.90915 79.6171 1.95247 79.1341 0 78.6313L0 78.6352Z" fill="#0071BC"/>
<path d="M31.8627 72.0354C31.1306 76.26 30.4026 80.4845 29.6704 84.7051C27.84 84.424 26.0137 84.1271 24.1875 83.8143C25.0038 79.6056 25.8202 75.3929 26.6407 71.1842C28.3786 71.4812 30.1207 71.7662 31.8627 72.0315V72.0354ZM30.3016 65.9778C30.9917 66.0886 31.5513 66.4133 31.9806 66.9438C32.4056 67.4744 32.5697 68.0524 32.4645 68.6701C32.3509 69.3313 32.0142 69.8381 31.4546 70.1825C30.8949 70.5309 30.2301 70.6418 29.4726 70.519C28.711 70.3963 28.1261 70.0796 27.7221 69.5767C27.3182 69.0739 27.1793 68.4879 27.3098 67.8307C27.4276 67.2131 27.7895 66.7221 28.3786 66.3579C28.9719 65.9936 29.6115 65.8669 30.3016 65.9778Z" fill="#0071BC"/>
<path d="M46.0055 86.7596C44.1666 86.5775 42.3236 86.3795 40.4889 86.1657C40.8045 83.7664 41.1201 81.371 41.4357 78.9717C41.5325 78.2393 41.2421 77.8354 40.5647 77.7523C39.8998 77.6731 39.5127 77.9977 39.4117 78.7302C39.0793 81.1256 38.7426 83.5209 38.4102 85.9163C36.5756 85.6906 34.7409 85.4451 32.9062 85.1838C33.285 82.8241 33.6637 80.4644 34.0424 78.1046C34.3075 76.4497 35.1449 75.1431 36.5293 74.1731C37.9137 73.2031 39.4706 72.8269 41.2169 73.0368C43.2156 73.2783 44.7347 74.1097 45.7993 75.5588C46.6325 76.6872 46.9565 78.172 46.7503 80.017C46.502 82.2619 46.2537 84.5068 46.0013 86.7556L46.0055 86.7596Z" fill="#0071BC"/>
<path d="M59.4454 70.1704C61.1706 70.2694 62.9001 70.3525 64.6253 70.4198C64.4654 73.9832 64.3097 77.5465 64.1498 81.1099C64.0615 83.0737 63.4134 84.6534 62.1721 85.8333C61.461 86.5143 60.5647 87.0408 59.4874 87.4011C58.4144 87.7654 57.3162 87.9119 56.2095 87.8406C54.0045 87.6981 52.1993 86.9141 50.8234 85.5086C49.4432 84.1031 48.8667 82.46 49.056 80.5991C49.2412 78.7937 50.1291 77.305 51.686 76.1053C53.2471 74.9057 54.985 74.3791 56.9375 74.5058C57.2488 74.5256 57.7159 74.581 58.3429 74.6721C58.2209 76.4379 58.103 78.1998 57.981 79.9656C57.5602 79.6291 57.131 79.447 56.6934 79.4193C56.138 79.3836 55.6498 79.5341 55.2248 79.8706C54.7998 80.2072 54.5642 80.6308 54.5221 81.1455C54.48 81.6404 54.6526 82.0838 55.0439 82.4679C55.431 82.8519 55.9191 83.0657 56.4998 83.1014C57.8969 83.1924 58.6543 82.3768 58.7637 80.6704C58.9909 77.1704 59.2181 73.6704 59.4454 70.1704Z" fill="#0071BC"/>
<path d="M67.7426 70.5262C70.0359 70.5896 72.325 70.6292 74.6183 70.6371C78.6874 70.649 80.7534 72.0822 80.8166 75.0636C80.846 76.5404 80.1559 77.7836 78.7252 78.7734C80.8208 79.5692 81.9106 80.9945 81.9611 83.089C81.999 84.6925 81.4015 85.9872 80.1475 86.9572C79.5331 87.4204 78.8725 87.7451 78.1614 87.9312C77.4502 88.1173 76.495 88.2123 75.2874 88.2083C74.9086 88.2083 74.5257 88.2083 74.147 88.2044C74.1554 86.6998 74.1638 85.1914 74.1765 83.6868C74.5131 83.6868 74.8455 83.6868 75.1822 83.6868C75.7755 83.6868 76.1921 83.6195 76.4361 83.4849C76.6802 83.3503 76.798 83.1167 76.798 82.7841C76.798 82.218 76.3015 81.9368 75.3168 81.9368C74.9381 81.9368 74.5636 81.9368 74.1849 81.9329C74.1933 80.369 74.2059 78.809 74.2143 77.2451C75.2789 77.2491 75.8091 76.9204 75.8091 76.2592C75.8091 75.6495 75.3336 75.3447 74.3827 75.3407C74.0292 75.3407 73.6757 75.3367 73.3223 75.3328C73.2802 79.6207 73.2381 83.9086 73.196 88.1964C71.1889 88.1806 69.1817 88.141 67.1787 88.0856C67.3639 82.2298 67.5532 76.3741 67.7384 70.5183L67.7426 70.5262Z" fill="#0071BC"/>
<path d="M91.4169 74.83C91.5221 76.5444 91.6231 78.2587 91.7283 79.9731C91.3412 79.8028 90.9962 79.7276 90.6932 79.7434C89.7169 79.791 89.2625 80.4838 89.3298 81.8181C89.435 83.8453 89.536 85.8724 89.6412 87.9035C87.7939 87.9866 85.9467 88.0539 84.0994 88.1054C84.0278 85.7655 83.9563 83.4295 83.8848 81.0896C83.8301 79.2367 84.3476 77.744 85.4249 76.6038C86.5021 75.4635 87.9538 74.8577 89.8053 74.7706C90.2177 74.7508 90.7563 74.7706 91.4211 74.83H91.4169Z" fill="#0071BC"/>
<path d="M98.2464 74.5138C98.6209 78.778 98.9912 83.0421 99.3657 87.3102C97.5226 87.4527 95.6796 87.5794 93.8323 87.6863C93.5462 83.4143 93.26 79.1462 92.9781 74.8741C94.737 74.7712 96.4917 74.6484 98.2506 74.5138H98.2464ZM95.1873 68.9906C95.8858 68.9431 96.5085 69.1292 97.0556 69.5489C97.6026 69.9686 97.9098 70.4912 97.9645 71.1128C98.0234 71.7819 97.8256 72.3481 97.3754 72.8113C96.9209 73.2746 96.3108 73.5359 95.5449 73.5874C94.7791 73.6388 94.1311 73.4646 93.6135 73.0687C93.0917 72.6728 92.814 72.1343 92.7677 71.4692C92.7256 70.8436 92.9487 70.2853 93.4241 69.7983C93.9038 69.3074 94.4887 69.0421 95.1873 68.9946V68.9906Z" fill="#0071BC"/>
<path d="M109.35 68.6658C111.067 68.4639 112.784 68.2421 114.501 68.0085C115.048 71.5363 115.59 75.0679 116.137 78.5956C116.44 80.5396 116.108 82.2065 115.119 83.5843C114.551 84.3801 113.773 85.0492 112.788 85.5956C111.803 86.142 110.751 86.4746 109.649 86.5973C107.452 86.8428 105.525 86.3835 103.892 85.2432C102.26 84.099 101.368 82.5866 101.191 80.7257C101.018 78.9203 101.595 77.3009 102.891 75.8519C104.191 74.4028 105.794 73.5792 107.743 73.3654C108.05 73.3298 108.521 73.306 109.157 73.2823C109.384 75.0362 109.615 76.7942 109.842 78.5481C109.363 78.2908 108.904 78.1878 108.466 78.2353C107.915 78.2947 107.461 78.5283 107.107 78.9322C106.754 79.336 106.607 79.7953 106.665 80.306C106.724 80.8009 106.981 81.2048 107.436 81.5136C107.894 81.8224 108.412 81.9491 108.992 81.8818C110.385 81.7274 110.97 80.793 110.739 79.0985C110.272 75.6183 109.809 72.1381 109.342 68.6618L109.35 68.6658Z" fill="#0071BC"/>
<path d="M126.868 78.5363C127.15 79.9854 127.436 81.4306 127.718 82.8797C126.978 83.2716 126.25 83.525 125.526 83.6438C123.759 83.9368 122.155 83.5884 120.741 82.6104C119.323 81.6325 118.49 80.2943 118.221 78.6155C117.926 76.7982 118.398 75.167 119.601 73.706C120.805 72.2451 122.416 71.3503 124.457 71.0058C125.543 70.8197 126.624 70.8356 127.697 71.0533C128.774 71.2671 129.666 71.6512 130.382 72.2094C131.573 73.1319 132.406 74.6325 132.869 76.727C133.172 78.1048 133.475 79.4826 133.782 80.8644C134.278 83.1093 133.942 85.0771 132.742 86.7597C131.543 88.4424 129.713 89.5035 127.289 89.9113C126.548 90.0341 125.585 90.0301 124.402 89.8955C124.146 88.4543 123.889 87.0171 123.632 85.5759C124.411 85.8016 125.168 85.8531 125.905 85.7303C126.898 85.568 127.609 85.1523 128.038 84.499C128.467 83.8457 128.572 82.9945 128.366 81.9453C128.051 80.3616 127.735 78.7818 127.424 77.1981C127.159 75.8718 126.426 75.3175 125.227 75.5233C124.718 75.6104 124.301 75.8599 123.986 76.2756C123.666 76.6913 123.548 77.1268 123.632 77.5822C123.721 78.0652 123.977 78.4374 124.407 78.6987C124.836 78.96 125.324 79.0431 125.871 78.9521C126.237 78.8887 126.569 78.7541 126.877 78.5443L126.868 78.5363Z" fill="#0071BC"/>
<path d="M150 73.2117C147.328 73.8966 144.652 74.546 141.963 75.1596C141.748 74.8271 141.601 74.5143 141.525 74.2134C141.42 73.7977 141.399 73.3661 141.462 72.9306C142.354 72.7287 143.247 72.5188 144.139 72.309C143.701 71.43 142.998 71.1053 142.018 71.335C141.366 71.4854 140.899 71.8536 140.612 72.4436C140.326 73.0335 140.28 73.7145 140.473 74.4945C140.675 75.3061 141.046 75.9159 141.576 76.3276C142.106 76.7394 142.704 76.8661 143.36 76.7156C143.895 76.5929 144.349 76.2405 144.715 75.6545C146.011 76.482 147.32 77.2976 148.637 78.1093C147.48 79.4356 146.007 80.3067 144.248 80.7145C142.098 81.2094 140.128 80.9798 138.378 80.0414C136.623 79.0991 135.546 77.6975 135.125 75.8486C134.704 74.0115 135.066 72.3129 136.186 70.749C137.301 69.1851 138.87 68.1795 140.911 67.7083C142.906 67.249 144.74 67.4549 146.449 68.3378C148.157 69.2207 149.285 70.5471 149.802 72.3367C149.857 72.5188 149.92 72.8118 150 73.2196V73.2117Z" fill="#0071BC"/>
<path d="M117.286 33.2303C117.286 33.2303 122.9 36.3986 126.812 34.8216C131.904 32.769 133.932 21.2168 133.932 21.2168C133.932 21.2168 131.849 23.1611 127.098 23.0456C122.347 22.93 121.09 24.0381 119.394 25.3486C116.22 27.802 117.286 33.2303 117.286 33.2303Z" fill="#009245"/>
</svg>
