<svg width="80" height="80" viewBox="0 0 80 80" fill="none" xmlns="http://www.w3.org/2000/svg">
<g clip-path="url(#clip0_150_142)">
<path d="M39.995 80C62.0836 80 79.99 62.0914 79.99 40C79.99 17.9086 62.0836 0 39.995 0C17.9064 0 0 17.9086 0 40C0 62.0914 17.9064 80 39.995 80Z" fill="#FFDEF9"/>
<path d="M21.8516 21.6289H24.1953V38H21.8516V21.6289Z" fill="#739E57"/>
<path d="M31.3242 30.4727H31.4648C32.4883 30.4727 33.2656 30.2617 33.7969 29.8398C34.3359 29.418 34.6055 28.8047 34.6055 28C34.6055 27.2734 34.3438 26.6836 33.8203 26.2305C33.3047 25.7773 32.625 25.5508 31.7812 25.5508C30.9297 25.5508 29.9844 25.8164 28.9453 26.3477V24.1094C29.8984 23.6328 30.9375 23.3945 32.0625 23.3945C33.5703 23.3945 34.7578 23.7891 35.625 24.5781C36.5 25.3672 36.9375 26.4453 36.9375 27.8125C36.9375 28.6406 36.7695 29.3398 36.4336 29.9102C36.0977 30.4727 35.5625 30.957 34.8281 31.3633C35.4688 31.6133 35.9375 31.9219 36.2344 32.2891C36.5312 32.6484 36.7617 33.0859 36.9258 33.6016C37.0898 34.1172 37.1719 34.6641 37.1719 35.2422C37.1719 36.6719 36.6953 37.8555 35.7422 38.793C34.7891 39.7227 33.5859 40.1875 32.1328 40.1875C30.8906 40.1875 29.6914 39.8867 28.5352 39.2852V36.7305C29.7695 37.5039 30.9688 37.8906 32.1328 37.8906C32.9219 37.8906 33.5547 37.6562 34.0312 37.1875C34.5156 36.7188 34.7578 36.0977 34.7578 35.3242C34.7578 34.6758 34.5586 34.1094 34.1602 33.625C33.9258 33.3516 33.6641 33.1523 33.375 33.0273C33.0938 32.8945 32.4805 32.7695 31.5352 32.6523L31.3242 32.6289V30.4727Z" fill="#FF9C58"/>
<path d="M46.3711 20.582L46.6055 20.418L48.0234 22.2109C46.7734 23.0156 45.7344 23.8945 44.9062 24.8477C44.0859 25.8008 43.4531 26.9219 43.0078 28.2109C43.875 27.7656 44.7383 27.543 45.5977 27.543C46.8867 27.543 47.9727 28 48.8555 28.9141C49.7383 29.8281 50.1797 30.9492 50.1797 32.2773C50.1797 33.6445 49.6992 34.8047 48.7383 35.7578C47.7773 36.7109 46.6094 37.1875 45.2344 37.1875C43.6953 37.1875 42.4492 36.6484 41.4961 35.5703C40.5508 34.4844 40.0781 33.0664 40.0781 31.3164C40.0781 30.0039 40.3203 28.6992 40.8047 27.4023C41.2969 26.0977 42 24.8789 42.9141 23.7461C43.8359 22.6055 44.9883 21.5508 46.3711 20.582ZM42.5039 30.6367C42.4414 31.0039 42.4102 31.4141 42.4102 31.8672C42.4102 32.7891 42.6758 33.5469 43.207 34.1406C43.7461 34.7344 44.4336 35.0312 45.2695 35.0312C46.0195 35.0312 46.6367 34.7773 47.1211 34.2695C47.6133 33.7617 47.8594 33.1211 47.8594 32.3477C47.8594 31.5586 47.5977 30.9219 47.0742 30.4375C46.5586 29.9453 45.875 29.6992 45.0234 29.6992C44.5859 29.6992 44.1875 29.7656 43.8281 29.8984C43.4766 30.0312 43.0352 30.2773 42.5039 30.6367Z" fill="#F4B66C"/>
<path d="M53.4258 23.6289H60.6914V25.7148H55.5586V29.8516C55.7227 29.8359 55.8906 29.8281 56.0625 29.8281C57.6484 29.8281 58.9531 30.3125 59.9766 31.2812C61 32.2422 61.5117 33.4688 61.5117 34.9609C61.5117 36.5 61.0039 37.7539 59.9883 38.7227C58.9805 39.6836 57.6719 40.1641 56.0625 40.1641C54.7344 40.1641 53.4453 39.8438 52.1953 39.2031V36.7891C53.375 37.5547 54.5273 37.9375 55.6523 37.9375C56.6367 37.9375 57.4609 37.6523 58.125 37.082C58.7969 36.5039 59.1328 35.7969 59.1328 34.9609C59.1328 34.0938 58.7695 33.3711 58.043 32.793C57.3164 32.207 56.4102 31.9141 55.3242 31.9141C54.3945 31.9141 53.7617 31.9922 53.4258 32.1484V23.6289Z" fill="#276FD8"/>
<path d="M11.371 48.8631L14.1986 51.2288L13.6331 52.0537L10.9385 49.8094L9.61895 52.6967L8 51.9931L10.2954 47.0069L8.35484 46.8856L8.43246 46L14.121 46.3518L14.0433 47.2374L12.1804 47.1161L11.371 48.8631ZM16.9042 46.3882L16.7379 48.9237L19 49.1906L18.9224 50.0763L16.6825 49.8094L16.494 53L14.875 52.8787L15.2742 46.2669L16.8931 46.3882H16.9042Z" fill="#3F3F3F"/>
<path d="M26.6438 46.0557C27.272 46.7635 27.5808 47.6512 27.5808 48.7069C27.5808 49.7626 27.2614 50.6504 26.6438 51.3582C26.0155 52.066 25.2275 52.4139 24.2904 52.4139C23.3533 52.4139 22.5653 52.054 21.9371 51.3582C21.3088 50.6504 21 49.7626 21 48.7069C21 47.6512 21.3088 46.7635 21.9371 46.0557C22.5653 45.3479 23.3427 45 24.2904 45C25.2381 45 26.0155 45.3599 26.6438 46.0557ZM25.2488 55.389L23.5663 55.2571L23.7047 53.6735L21.4579 53.8055L21.3727 52.8578L27.7832 52.4499L27.8683 53.3976L25.4192 53.5536L25.2488 55.389ZM22.938 47.1354C22.5866 47.5673 22.4056 48.0951 22.4056 48.7069C22.4056 49.3188 22.5866 49.8466 22.938 50.2785C23.2894 50.7104 23.7473 50.9263 24.2904 50.9263C24.8335 50.9263 25.2807 50.7104 25.6428 50.2785C25.9942 49.8466 26.1752 49.3188 26.1752 48.7069C26.1752 48.0951 25.9942 47.5673 25.6428 47.1354C25.2914 46.7035 24.8335 46.4876 24.2904 46.4876C23.7473 46.4876 23.3001 46.7035 22.938 47.1354ZM26.2285 54.5613L27.9109 54.7172L27.7193 57.9203L31.9148 57.6684L32 58.6161L25.9516 59L26.2285 54.5613ZM30.9245 47.1114L30.4985 54.2134L28.8161 54.0814L29.0077 50.6864L26.2498 50.3745L26.3349 49.4267L29.061 49.7386L29.2314 46.9794L30.9138 47.1114H30.9245Z" fill="#3F3F3F"/>
<path d="M40.9213 53.3569L41 54.2243L35.0787 54.5976L35 53.7302L37.0557 53.6094L37.1836 51.5451L38.7377 51.6659L38.6098 53.4886L40.9213 53.3459V53.3569ZM39.1508 46.1976L40.7049 46.3404L40.3705 51.9404L35.1475 52.5224L35.5607 46L37.1148 46.1427L36.9869 48.0863L39.0131 48.3169L39.141 46.1976H39.1508ZM39.7705 55.3224C40.2525 55.8384 40.4984 56.4863 40.4984 57.2769C40.4984 58.0675 40.2525 58.7263 39.7705 59.2314C39.2885 59.7475 38.6885 60 37.9803 60C37.2721 60 36.6721 59.7475 36.1902 59.2314C35.7082 58.7153 35.4623 58.0675 35.4623 57.2769C35.4623 56.4863 35.7082 55.8275 36.1902 55.3224C36.6721 54.8063 37.2721 54.5537 37.9803 54.5537C38.6885 54.5537 39.2885 54.8063 39.7705 55.3224ZM37.0951 56.2886C36.8689 56.5412 36.7607 56.8706 36.7607 57.2769C36.7607 57.6831 36.8689 58.0126 37.0951 58.2651C37.3213 58.5176 37.6164 58.6384 37.9803 58.6384C38.3443 58.6384 38.6393 58.5067 38.8656 58.2651C39.0918 58.0126 39.2 57.6831 39.2 57.2769C39.2 56.8706 39.082 56.5412 38.8656 56.2886C38.6393 56.0361 38.3443 55.9153 37.9803 55.9153C37.6164 55.9153 37.3213 56.0361 37.0951 56.2886ZM36.9377 48.9757L36.7803 51.4133L38.8361 51.2157L38.9639 49.1843L36.9377 48.9867V48.9757Z" fill="#3F3F3F"/>
<path d="M48.5053 50.9933L46.3529 48.7926L45.2978 51.6371L44 50.9465L46.2157 45L47.5135 45.6906L46.6905 47.8679L48.9484 50.1856L48.4947 50.9933H48.5053ZM51.3118 45.5151L51.1852 48.0084L53 48.2659L52.9367 49.1321L51.143 48.8746L50.9953 52L49.6975 51.8829L50.0246 45.3863L51.3224 45.5033L51.3118 45.5151Z" fill="#3F3F3F"/>
<path d="M68.3109 51.5192L68.4023 52.3947L63 52.5831L63.4797 46L68.6307 46.1995L68.5393 47.075H65.2272L65.1586 48.4936L68.2995 48.5379V49.5354L65.0444 49.48L64.8959 51.497H68.2995L68.3109 51.5192ZM72 46.9088L71.9086 52.4723L70.3782 52.439L70.401 49.9565L68.9619 49.7903L69.0533 48.9147L70.4581 48.815V46.8755L72 46.9088ZM70.1726 54.0017L66.7919 53.9241L66.8832 53.0486L71.486 53.2702L71.2805 56.318L68.3338 56.1961L68.1853 57.925L71.4975 57.4928L70.9378 58.6343L66.2779 59L66.552 55.2208L70.047 55.3981L70.1726 53.9906V54.0017Z" fill="#3F3F3F"/>
<path d="M61.3908 46V46.7552H60.1035V49.9227H61.4138V50.6779H58.3908V52.2448H62V53H54V52.2448H57.5977V50.6779H54.5747V49.9227H55.8851V46.7552H54.5977V46H61.3908ZM56.6782 46.7552V49.9227H59.2989V46.7552H56.6782Z" fill="#3F3F3F" stroke="#3F3F3F" stroke-width="0.25" stroke-miterlimit="10"/>
</g>
<defs>
<clipPath id="clip0_150_142">
<rect width="80" height="80" fill="white"/>
</clipPath>
</defs>
</svg>
