<svg width="81" height="81" viewBox="0 0 81 81" fill="none" xmlns="http://www.w3.org/2000/svg">
<g clip-path="url(#clip0_153_178)">
<path d="M40.11 80.24C62.2621 80.24 80.22 62.2777 80.22 40.12C80.22 17.9623 62.2621 0 40.11 0C17.9579 0 0 17.9623 0 40.12C0 62.2777 17.9579 80.24 40.11 80.24Z" fill="#FAE100"/>
<path d="M67.5397 37.4399C67.5397 49.2399 56.0097 58.8699 41.4997 59.4499C41.0397 59.4699 38.3997 59.3699 37.9297 59.3699C36.0397 59.3699 26.8397 64.8999 24.0697 64.8599C26.8797 61.3399 28.2497 58.6899 27.7697 57.1299C18.8197 53.4999 12.6797 46.0499 12.6797 37.4399C12.6797 25.2699 24.9597 15.3999 40.1097 15.3999C55.2597 15.3999 67.5397 25.2699 67.5397 37.4399Z" fill="#39282E"/>
<path d="M31.5156 34.8457H29.6172V41.0859C29.6172 41.4453 29.5371 41.7129 29.377 41.8887C29.2168 42.0605 29.0098 42.1465 28.7559 42.1465C28.498 42.1465 28.2871 42.0586 28.123 41.8828C27.9629 41.707 27.8828 41.4414 27.8828 41.0859V34.8457H25.9844C25.6875 34.8457 25.4668 34.7812 25.3223 34.6523C25.1777 34.5195 25.1055 34.3457 25.1055 34.1309C25.1055 33.9082 25.1797 33.7324 25.3281 33.6035C25.4805 33.4746 25.6992 33.4102 25.9844 33.4102H31.5156C31.8164 33.4102 32.0391 33.4766 32.1836 33.6094C32.332 33.7422 32.4062 33.916 32.4062 34.1309C32.4062 34.3457 32.332 34.5195 32.1836 34.6523C32.0352 34.7812 31.8125 34.8457 31.5156 34.8457ZM38.1719 41.0273L37.7617 39.9492H34.2695L33.8594 41.0508C33.6992 41.4805 33.5625 41.7715 33.4492 41.9238C33.3359 42.0723 33.1504 42.1465 32.8926 42.1465C32.6738 42.1465 32.4805 42.0664 32.3125 41.9062C32.1445 41.7461 32.0605 41.5645 32.0605 41.3613C32.0605 41.2441 32.0801 41.123 32.1191 40.998C32.1582 40.873 32.2227 40.6992 32.3125 40.4766L34.5098 34.8984C34.5723 34.7383 34.6465 34.5469 34.7324 34.3242C34.8223 34.0977 34.916 33.9102 35.0137 33.7617C35.1152 33.6133 35.2461 33.4941 35.4062 33.4043C35.5703 33.3105 35.7715 33.2637 36.0098 33.2637C36.252 33.2637 36.4531 33.3105 36.6133 33.4043C36.7773 33.4941 36.9082 33.6113 37.0059 33.7559C37.1074 33.9004 37.1914 34.0566 37.2578 34.2246C37.3281 34.3887 37.416 34.6094 37.5215 34.8867L39.7656 40.4297C39.9414 40.8516 40.0293 41.1582 40.0293 41.3496C40.0293 41.5488 39.9453 41.7324 39.7773 41.9004C39.6133 42.0645 39.4141 42.1465 39.1797 42.1465C39.043 42.1465 38.9258 42.1211 38.8281 42.0703C38.7305 42.0234 38.6484 41.959 38.582 41.877C38.5156 41.791 38.4434 41.6621 38.3652 41.4902C38.291 41.3145 38.2266 41.1602 38.1719 41.0273ZM34.7266 38.6426H37.293L35.998 35.0977L34.7266 38.6426ZM43.0176 34.3184V40.5703H46.5449C46.8262 40.5703 47.041 40.6387 47.1895 40.7754C47.3418 40.9121 47.418 41.084 47.418 41.291C47.418 41.502 47.3438 41.6738 47.1953 41.8066C47.0469 41.9355 46.8301 42 46.5449 42H42.3438C41.9648 42 41.6914 41.916 41.5234 41.748C41.3594 41.5801 41.2773 41.3086 41.2773 40.9336V34.3184C41.2773 33.9668 41.3555 33.7031 41.5117 33.5273C41.6719 33.3516 41.8809 33.2637 42.1387 33.2637C42.4004 33.2637 42.6113 33.3516 42.7715 33.5273C42.9355 33.6992 43.0176 33.9629 43.0176 34.3184ZM50.3184 34.3184V37.3301L53.7344 33.7676C53.8984 33.5957 54.0371 33.4688 54.1504 33.3867C54.2676 33.3047 54.4219 33.2637 54.6133 33.2637C54.8633 33.2637 55.0645 33.3379 55.2168 33.4863C55.373 33.6309 55.4512 33.8086 55.4512 34.0195C55.4512 34.2734 55.3203 34.5254 55.0586 34.7754L52.9434 36.7793L55.3809 40.2715C55.5527 40.5137 55.6816 40.7266 55.7676 40.9102C55.8535 41.0898 55.8965 41.2656 55.8965 41.4375C55.8965 41.6289 55.8203 41.7949 55.668 41.9355C55.5195 42.0762 55.3164 42.1465 55.0586 42.1465C54.8164 42.1465 54.6191 42.0957 54.4668 41.9941C54.3145 41.8887 54.1855 41.75 54.0801 41.5781C53.9746 41.4062 53.8809 41.25 53.7988 41.1094L51.7422 37.9453L50.3184 39.3105V41.0859C50.3184 41.4453 50.2363 41.7129 50.0723 41.8887C49.9082 42.0605 49.6973 42.1465 49.4395 42.1465C49.291 42.1465 49.1484 42.1074 49.0117 42.0293C48.875 41.9512 48.7695 41.8457 48.6953 41.7129C48.6406 41.6035 48.6074 41.4766 48.5957 41.332C48.584 41.1875 48.5781 40.9785 48.5781 40.7051V34.3184C48.5781 33.9668 48.6543 33.7031 48.8066 33.5273C48.9629 33.3516 49.1738 33.2637 49.4395 33.2637C49.7012 33.2637 49.9121 33.3516 50.0723 33.5273C50.2363 33.6992 50.3184 33.9629 50.3184 34.3184Z" fill="#FAE100"/>
</g>
<defs>
<clipPath id="clip0_153_178">
<rect width="80.23" height="80.24" fill="white"/>
</clipPath>
</defs>
</svg>
