<svg width="81" height="81" viewBox="0 0 81 81" fill="none" xmlns="http://www.w3.org/2000/svg">
<g clip-path="url(#clip0_153_183)">
<path d="M40.11 80.24C62.2621 80.24 80.22 62.2777 80.22 40.12C80.22 17.9623 62.2621 0 40.11 0C17.9579 0 0 17.9623 0 40.12C0 62.2777 17.9579 80.24 40.11 80.24Z" fill="#03C75A"/>
<path d="M56.9121 23.5039C56.9121 25.3594 56.8307 28.1507 56.668 31.8779C56.5215 35.5889 56.4482 38.3802 56.4482 40.252V56.3408C56.4482 56.7803 56.2122 57 55.7402 57C55.3496 57 54.7555 57.0163 53.958 57.0488C53.1768 57.0814 52.5908 57.0977 52.2002 57.0977C51.777 57.0977 51.1423 57.0651 50.2959 57C49.4495 56.9349 48.8148 56.9023 48.3916 56.9023C48.0986 56.9023 47.7487 56.6338 47.3418 56.0967C46.1699 54.5179 43.5332 51.0186 39.4316 45.5986C38.3086 44.085 36.5996 41.8551 34.3047 38.9092C34.2396 38.8115 34.1175 38.7139 33.9385 38.6162C33.8083 38.7301 33.7432 38.9092 33.7432 39.1533C33.7432 41.0413 33.792 43.8734 33.8896 47.6494C34.0036 51.4255 34.0605 54.2575 34.0605 56.1455C34.0605 56.7152 33.8408 57 33.4014 57H24.9541C24.4821 57 24.2461 56.7477 24.2461 56.2432C24.2461 54.4854 24.3275 51.8324 24.4902 48.2842C24.6693 44.736 24.7588 42.0749 24.7588 40.3008C24.7588 38.429 24.6774 35.6296 24.5146 31.9023C24.3682 28.1751 24.2949 25.3838 24.2949 23.5283C24.2949 23.1702 24.6123 22.9912 25.2471 22.9912C26.1911 22.9912 27.3548 22.9261 28.7383 22.7959C29.0638 22.7633 29.7067 22.6576 30.667 22.4785C31.4808 22.332 32.1237 22.2588 32.5957 22.2588C32.791 22.2588 33.0921 22.5355 33.499 23.0889L42.6055 35.5645C43.4193 36.6875 44.6481 38.3314 46.292 40.4961C46.6989 41.0007 47.0488 41.2529 47.3418 41.2529C47.5534 41.2529 47.6592 40.6182 47.6592 39.3486C47.6592 37.6396 47.5615 35.068 47.3662 31.6338C47.1872 28.1995 47.0977 25.6198 47.0977 23.8945C47.0977 23.2923 47.2686 22.9912 47.6104 22.9912C48.5869 22.9912 50.0599 22.9505 52.0293 22.8691C53.9987 22.7878 55.4717 22.7471 56.4482 22.7471C56.7575 22.7471 56.9121 22.9993 56.9121 23.5039Z" fill="white"/>
</g>
<defs>
<clipPath id="clip0_153_183">
<rect width="80.23" height="80.24" fill="white"/>
</clipPath>
</defs>
</svg>
