<?xml version="1.0" encoding="UTF-8"?>
<svg id="Layer_1" data-name="Layer 1" xmlns="http://www.w3.org/2000/svg" viewBox="0 0 80.23 80.24">
  <defs>
    <style>
      .cls-1 {
        fill: #276fd8;
      }

      .cls-1, .cls-2, .cls-3, .cls-4 {
        font-family: GillSansMT, 'Gill Sans MT';
        font-size: 17.57px;
      }

      .cls-5, .cls-6 {
        fill: #3f3f3f;
      }

      .cls-2 {
        fill: #f4b66c;
      }

      .cls-6 {
        stroke: #3f3f3f;
        stroke-miterlimit: 10;
        stroke-width: .25px;
      }

      .cls-7 {
        fill: #ffdef9;
      }

      .cls-3 {
        fill: #ff9c58;
      }

      .cls-4 {
        fill: #739e57;
      }
    </style>
  </defs>
  <ellipse class="cls-7" cx="40.11" cy="40.12" rx="40.11" ry="40.12"/>
  <g>
    <text class="cls-4" transform="translate(20.95 34.44) scale(.97 1)"><tspan x="0" y="0">1</tspan></text>
    <text class="cls-3" transform="translate(30.65 36.32) scale(.97 1)"><tspan x="0" y="0">3</tspan></text>
    <text class="cls-2" transform="translate(40.63 34.44) scale(.97 1)"><tspan x="0" y="0">6</tspan></text>
    <text class="cls-1" transform="translate(50.26 36.32) scale(.97 1)"><tspan x="0" y="0">5</tspan></text>
  </g>
  <path class="cls-5" d="M14.95,47.27l2.55,1.95-.51,.68-2.43-1.85-1.19,2.38-1.46-.58,2.07-4.11-1.75-.1,.07-.73,5.13,.29-.07,.73-1.68-.1-.73,1.44Zm4.99-2.04l-.15,2.09,2.04,.22-.07,.73-2.02-.22-.17,2.63-1.46-.1,.36-5.45,1.46,.1Z"/>
  <path class="cls-5" d="M28.41,45.32c.59,.59,.88,1.33,.88,2.21s-.3,1.62-.88,2.21c-.59,.59-1.33,.88-2.21,.88s-1.62-.3-2.21-.88c-.59-.59-.88-1.33-.88-2.21s.29-1.62,.88-2.21c.59-.59,1.32-.88,2.21-.88s1.62,.3,2.21,.88Zm-1.31,7.78l-1.58-.11,.13-1.32-2.11,.11-.08-.79,6.02-.34,.08,.79-2.3,.13-.16,1.53Zm-2.17-6.88c-.33,.36-.5,.8-.5,1.31s.17,.95,.5,1.31c.33,.36,.76,.54,1.27,.54s.93-.18,1.27-.54c.33-.36,.5-.8,.5-1.31s-.17-.95-.5-1.31c-.33-.36-.76-.54-1.27-.54s-.93,.18-1.27,.54Zm3.09,6.19l1.58,.13-.18,2.67,3.94-.21,.08,.79-5.68,.32,.26-3.7Zm4.41-6.21l-.4,5.92-1.58-.11,.18-2.83-2.59-.26,.08-.79,2.56,.26,.16-2.3,1.58,.11Z"/>
  <path class="cls-5" d="M41.36,51.25l.08,.79-6.02,.34-.08-.79,2.09-.11,.13-1.88,1.58,.11-.13,1.66,2.35-.13Zm-1.8-6.52l1.58,.13-.34,5.1-5.31,.53,.42-5.94,1.58,.13-.13,1.77,2.06,.21,.13-1.93Zm.63,8.31c.49,.47,.74,1.06,.74,1.78s-.25,1.32-.74,1.78c-.49,.47-1.1,.7-1.82,.7s-1.33-.23-1.82-.7c-.49-.47-.74-1.06-.74-1.78s.25-1.32,.74-1.78c.49-.47,1.1-.7,1.82-.7s1.33,.23,1.82,.7Zm-2.72,.88c-.23,.23-.34,.53-.34,.9s.11,.67,.34,.9c.23,.23,.53,.34,.9,.34s.67-.12,.9-.34c.23-.23,.34-.53,.34-.9s-.12-.67-.34-.9c-.23-.23-.53-.34-.9-.34s-.67,.11-.9,.34Zm-.16-6.66l-.16,2.22,2.09-.18,.13-1.85-2.06-.18Z"/>
  <path class="cls-5" d="M47.48,49.54l-2.04-1.88-1,2.43-1.23-.59,2.1-5.08,1.23,.59-.78,1.86,2.14,1.98-.43,.69Zm2.66-4.68l-.12,2.13,1.72,.22-.06,.74-1.7-.22-.14,2.67-1.23-.1,.31-5.55,1.23,.1Z"/>
  <path class="cls-5" d="M65.09,49.92l.08,.79-4.73,.17,.42-5.94,4.51,.18-.08,.79h-2.9l-.06,1.28,2.75,.04v.9l-2.85-.05-.13,1.82h2.98Zm3.23-4.16l-.08,5.02-1.34-.03,.02-2.24-1.26-.15,.08-.79,1.23-.09v-1.75s1.35,.03,1.35,.03Zm-1.6,6.4l-2.96-.07,.08-.79,4.03,.2-.18,2.75-2.58-.11-.13,1.56,2.9-.39-.49,1.03-4.08,.33,.24-3.41,3.06,.16,.11-1.27Z"/>
  <path class="cls-6" d="M58.66,44.94v.67h-1.12v2.81h1.14v.67h-2.63v1.39h3.14v.67h-6.96v-.67h3.13v-1.39h-2.63v-.67h1.14v-2.81h-1.12v-.67h5.91Zm-4.1,.67v2.81h2.28v-2.81h-2.28Z"/>
</svg>