<?xml version="1.0" encoding="UTF-8"?>
<svg id="Layer_1" data-name="Layer 1" xmlns="http://www.w3.org/2000/svg" viewBox="0 0 341.07 299.23">
  <defs>
    <style>
      .cls-1 {
        fill: #d7a888;
        opacity: .89;
      }

      .cls-2 {
        fill: #e0414c;
      }
    </style>
  </defs>
  <path class="cls-1" d="M2.01,117.66c.27,.25,.5,.52,.73,.79,.72,.83,1.44,1.68,1.99,2.55s.93,1.78,.89,2.54"/>
  <g>
    <path class="cls-1" d="M102.26,290.26c-2.97-4.95-2.43,2.4,6.97-30.9,7.2-25.49,6.08-23.67,4.33-29.44-3.35-11-12.5-17.41-23.44-25.06-11.27-7.88-14.12-6.25-30.9-17.2-8.96-5.84-9.3-7.06-17.26-11.71-14.67-8.55-16.64-6.25-23.02-11.98-2.72-2.44-6.77-10.39-14.87-26.27,0,0-2.67-5.23-3.89-15.06-.25-2.01-.47-4.81,1.17-6.21,.85-.72,1.92-.84,2.66-.82-.16-.29-1.77-3.21-.43-6.16,1.31-2.87,4.55-3.83,6.82-3.52,2.34,.32,4.08,2.05,5.97,4.84,5.76,8.54,4.04,14,8.79,23.14,3.03,5.83,7.19,10.24,7.83,9.84,.65-.41-2.11-5.85-6.39-15.77-3.39-7.86-5.96-14.43-7.67-18.96-.08-2.25,.9-4.34,2.56-5.28,2.37-1.33,6-.22,7.67,3.08,2.39,4.78,6.04,11.58,11.08,19.35,6.9,10.62,10.35,15.93,14.07,18.47,10.72,7.32,17.6-.16,39.91,5.61,7.94,2.05,14.33,4.87,19.34,7.09,8.49,3.75,14.98,6.62,21.26,11.54,12.59,9.87,17.92,22.96,19.66,27.39,5.13,13.03,5.82,16.36,3.77,43.77-2.17,29.07-1.71,37.57-2.28,44.97-1.26,1.65-3.06,3.72-5.54,5.72-14.88,11.95-41.34,10.9-48.17-.44Z"/>
    <path class="cls-1" d="M81.16,146.93c-2.85-1.96-8.44-6.47-10.55-13.96-.68-2.43-1.56-5.73,0-8.9,1.51-3.08,4.84-5.06,7.14-5.17,5.67-.26,11.79,11.31,16.16,27.33,.33,1.22-.65,2.39-1.86,2.22l-10.89-1.52Z"/>
    <path class="cls-1" d="M238.81,290.26c2.97-4.95,2.43,2.4-6.97-30.9-7.2-25.49-6.08-23.67-4.33-29.44,3.35-11,12.5-17.41,23.44-25.06,11.27-7.88,14.12-6.25,30.9-17.2,8.96-5.84,9.3-7.06,17.26-11.71,14.67-8.55,16.64-6.25,23.02-11.98,2.72-2.44,6.77-10.39,14.87-26.27,0,0,2.67-5.23,3.89-15.06,.25-2.01,.47-4.81-1.17-6.21-.85-.72-1.92-.84-2.66-.82,.16-.29,1.77-3.21,.43-6.16-1.31-2.87-4.55-3.83-6.82-3.52-2.34,.32-4.08,2.05-5.97,4.84-5.76,8.54-4.04,14-8.79,23.14-3.03,5.83-7.19,10.24-7.83,9.84-.65-.41,2.11-5.85,6.39-15.77,3.39-7.86,5.96-14.43,7.67-18.96,.08-2.25-.9-4.34-2.56-5.28-2.37-1.33-6-.22-7.67,3.08-2.39,4.78-6.04,11.58-11.08,19.35-6.9,10.62-10.35,15.93-14.07,18.47-10.72,7.32-17.6-.16-39.91,5.61-7.94,2.05-14.33,4.87-19.34,7.09-8.49,3.75-14.98,6.62-21.26,11.54-12.59,9.87-17.92,22.96-19.66,27.39-5.13,13.03-5.82,16.36-3.77,43.77,2.17,29.07,1.71,37.57,2.28,44.97,1.26,1.65,3.06,3.72,5.54,5.72,14.88,11.95,41.34,10.9,48.17-.44Z"/>
    <path class="cls-1" d="M259.91,146.93c2.85-1.96,8.44-6.47,10.55-13.96,.68-2.43,1.56-5.73,0-8.9-1.51-3.08-4.84-5.06-7.14-5.17-5.67-.26-11.79,11.31-16.16,27.33-.33,1.22,.65,2.39,1.86,2.22l10.89-1.52Z"/>
  </g>
  <path class="cls-2" d="M249.03,7.54c-8.08-13.54-25.12-5.85-38.09,0-18.15,8.19-30.85,22.94-38.09,32.9-7.24-9.95-19.94-24.71-38.09-32.9-12.97-5.85-30.01-13.54-38.09,0-6.65,11.14-5.3,33.43,2.48,54.4,4.53,11.4,13.73,31.13,29.81,47.45,17.79,18.05,35.03,22.79,43.89,24.29,8.86-1.49,26.09-6.24,43.89-24.29,16.09-16.32,25.28-36.05,29.81-47.45,7.78-20.97,9.14-43.26,2.48-54.4Z"/>
</svg>