<?xml version="1.0" encoding="UTF-8"?>
<svg id="Layer_1" data-name="Layer 1" xmlns="http://www.w3.org/2000/svg" viewBox="0 0 28.63 25.5">
  <defs>
    <style>
      .cls-1 {
        fill: #538ca5;
      }

      .cls-1, .cls-2, .cls-3, .cls-4, .cls-5, .cls-6, .cls-7 {
        stroke: #000;
        stroke-miterlimit: 10;
      }

      .cls-1, .cls-2, .cls-4, .cls-7 {
        stroke-width: .35px;
      }

      .cls-2, .cls-6 {
        fill: none;
      }

      .cls-3 {
        stroke-width: .1px;
      }

      .cls-8, .cls-7 {
        fill: #adaeb0;
      }

      .cls-4 {
        fill: #fff;
      }

      .cls-5 {
        fill: #d1d2d3;
        stroke-width: .25px;
      }

      .cls-6 {
        stroke-width: .5px;
      }
    </style>
  </defs>
  <path d="M2.63,11.09c-.08,.14-.24,.22-.39,.21-.22-.01-.34-.19-.35-.21,0-2.18,.08-4.34,0-6.53-.02-.41,.06-.9,.34-1.2h0c.31-.33,.89-.33,1.35-.33h4.97c.14,.07,.2,.11,.2,.26,0,.16-.07,.32-.22,.38H3.17c-.06,0-.17,.03-.27,.1-.21,.15-.27,.38-.27,.43v6.88Z"/>
  <path d="M17.66,3.71h-1.65c-.17-.05-.3-.14-.29-.32,0-.17,.13-.27,.29-.32h1.65c.17,.04,.29,.15,.29,.32,0,.18-.11,.27-.29,.32Z"/>
  <path d="M26.47,15.07c-.06,.13-.19,.22-.34,.22-.14,0-.27-.09-.33-.22V7.49c.02-.17,.17-.3,.34-.3,.16,0,.3,.13,.32,.3v7.58Z"/>
  <path class="cls-5" d="M1.19,13.14H.12v8.22H5.39c.04,.05,.44,.54,1.1,.51,.59-.03,.93-.44,.98-.51h5.2v-7.85h-.77"/>
  <path class="cls-4" d="M6.4,13.39c-.55-.35-1.39-.79-2.48-1.08-1.14-.3-2.13-.32-2.8-.28-.06,2.56-.12,5.11-.18,7.67,.67-.05,1.59-.05,2.66,.18,1.23,.27,2.18,.73,2.8,1.1v-7.6Z"/>
  <path class="cls-4" d="M11.82,12.22v7.58c-.64-.06-1.6-.08-2.71,.18-1.1,.25-1.93,.68-2.48,1.01v-7.6c.6-.37,1.57-.85,2.85-1.08,.93-.17,1.74-.15,2.34-.09Z"/>
  <path class="cls-3" d="M5.11,14.93c-.39-.26-.84-.43-1.3-.5-.5-.08-1.02-.04-1.5,.12-.06,.02-.13-.02-.15-.07-.02-.06,0-.14,.08-.16,.3-.1,.89-.24,1.62-.13,.5,.08,.98,.26,1.4,.54,.07,.04,.09,.14,.04,.2-.04,.05-.12,.06-.18,.01Z"/>
  <path class="cls-3" d="M7.61,15.17c-.06,.05-.14,.04-.18-.01-.05-.05-.03-.15,.04-.2,.26-.17,.74-.43,1.4-.54,.54-.09,1.1-.04,1.62,.13,.09,.03,.12,.12,.09,.18-.03,.05-.1,.08-.16,.05-.28-.09-.83-.22-1.5-.12-.46,.07-.91,.25-1.3,.5Z"/>
  <path class="cls-3" d="M7.61,16.61c-.06,.04-.13,.05-.16,.02-.05-.04-.06-.15,.03-.23,.26-.17,.74-.44,1.4-.54,.68-.11,1.26,.01,1.62,.13,.1,.05,.13,.16,.09,.21-.03,.04-.1,.06-.17,.03-.28-.09-.83-.23-1.5-.12-.46,.07-.91,.25-1.3,.5Z"/>
  <path class="cls-3" d="M5.11,16.61c-.39-.26-.84-.43-1.3-.5-.63-.1-1.17,0-1.5,.12-.06,0-.11-.02-.13-.07-.03-.06,0-.13,.05-.17,.3-.1,.89-.24,1.62-.13,.49,.08,.98,.26,1.4,.54,.06,.06,.06,.14,0,.19-.04,.03-.09,.04-.15,.02Z"/>
  <path class="cls-3" d="M5.05,18.29c-.39-.26-.84-.43-1.3-.5-.5-.08-1.02-.04-1.5,.12,0,0-.08,.01-.12-.04-.04-.05-.03-.14,.05-.2,.3-.1,.89-.24,1.62-.13,.49,.08,.98,.26,1.4,.54,.08,.06,.08,.17,.03,.22-.04,.03-.11,.03-.17,0Z"/>
  <path d="M19.9,8.61l-.25-1.47c0-.11-.04-.21-.12-.28-.08-.07-.18-.11-.29-.11-.34,.02-.61-.1-.84-.32-.23-.22-.35-.51-.35-.82V2c0-.63,.51-1.14,1.14-1.14h6.67c.63,0,1.14,.51,1.14,1.14v3.48c0,.62-.49,1.12-1.11,1.14l-3.66,.1c-.1,0-.2,.04-.27,.12l-2.07,1.78Zm-.64-2.61c.3,0,.58,.11,.79,.32,.23,.22,.35,.51,.35,.82v.22l1.04-1.06c.21-.21,.49-.33,.78-.34l3.66-.1c.21,0,.38-.18,.38-.39V2c0-.22-.18-.39-.39-.39h-6.67c-.22,0-.39,.18-.39,.39v3.61c0,.11,.04,.21,.12,.28,.08,.07,.19,.12,.29,.11,.02,0,.03,0,.04,0Z"/>
  <path d="M25.07,3.07h-4.96c-.13-.03-.22-.15-.21-.27,0-.11,.1-.21,.21-.23h4.96c.11,.03,.18,.13,.19,.25,0,.12-.07,.22-.19,.25Z"/>
  <path d="M23.61,4.6h-3.49c-.1-.04-.16-.14-.16-.25,0-.11,.06-.21,.16-.25h3.49c.1,.04,.17,.14,.17,.25,0,.11-.07,.21-.17,.25Z"/>
  <rect class="cls-8" x="13.47" y="16.95" width="9.06" height="3.44"/>
  <g>
    <path d="M17.79,14.04h0l-.06-3.18c0-.55-.33-1.06-.83-1.28l-2.34-1.03c-.18-.08-.33-.23-.41-.41l-.45-1.04-.46,.2,.45,1.04c.08,.19,.22,.34,.37,.47-.31,.26-.89,.63-1.7,.6-.89-.03-1.49-.53-1.75-.8,.07-.09,.14-.17,.18-.27l.45-1.04-.46-.2-.45,1.04c-.08,.18-.22,.33-.41,.41l-2.34,1.03c-.51,.22-.83,.73-.83,1.28v.97h.01s0,.07,0,.11c.04,.09,.09,.15,.13,.18,.61-.17,1.23-.32,1.85-.46,.54-.12,1.07-.22,1.58-.31,.21-.04,.77-.11,1.31,.21,.38,.23,.59,.54,.7,.77l.07,.14h.16c.1,0,.3,.02,.5,.15,.16,.11,.25,.26,.29,.35v1.1l3.92-.03h0s.12,0,.12,0h.38s0,0,0,0Zm-1.83-.48v-1.94c0-.12-.1-.24-.23-.24-.13,0-.24,.07-.27,.24v1.94h-1.59s0-.64,0-.64l-.02-.09c-.06-.14-.19-.42-.49-.62-.23-.16-.46-.22-.63-.24-.15-.27-.41-.6-.82-.85-.69-.42-1.4-.33-1.66-.28-.51,.09-1.05,.19-1.6,.31-.31,.07-.63,.14-.94,.22-.16,.04-.3,.08-.45,.12v-.64c0-.36,.21-.68,.54-.82l2.34-1.03s.07-.05,.11-.07c.31,.32,1.02,.94,2.11,.97,.03,0,.06,0,.09,0,1.03,0,1.75-.53,2.07-.83l2.18,.96c.33,.14,.54,.47,.54,.83l.05,2.68h-1.32Z"/>
    <path class="cls-8" d="M10.14,9l-2.34,1.03c-.33,.14-.54,.47-.54,.82v.64c.15-.04,.29-.08,.45-.12,.31-.08,.63-.15,.94-.22,.55-.12,1.08-.22,1.6-.31,.26-.05,.97-.14,1.66,.28,.41,.25,.67,.58,.82,.85,.17,.02,.4,.08,.63,.24,.29,.21,.43,.48,.49,.62l.02,.09v.65h1.59v-1.95c.03-.18,.14-.24,.27-.24,.13,0,.22,.12,.23,.24v1.94h1.32s-.05-2.7-.05-2.7c0-.36-.21-.68-.54-.83l-2.18-.96c-.32,.3-1.03,.83-2.07,.83-.03,0-.06,0-.09,0-1.08-.03-1.8-.65-2.11-.97-.04,.02-.07,.05-.11,.07Z"/>
  </g>
  <line class="cls-2" x1="13.47" y1="16.95" x2="21.86" y2="16.95"/>
  <line class="cls-2" x1="13.47" y1="20.48" x2="22.24" y2="20.48"/>
  <circle class="cls-1" cx="25.26" cy="19.02" r="3.2"/>
  <polygon class="cls-4" points="24.54 17.79 24.54 20.24 26.7 19.02 24.54 17.79"/>
  <g>
    <g>
      <path class="cls-6" d="M10.07,5.57c.08,1.21,1.13,2.15,2.33,2.12,1.15-.03,2.13-.95,2.2-2.12,.54,.02,.92-.42,.89-.81-.04-.39-.51-.75-1.04-.62,.08-1.02-.14-1.38-.37-1.51-.42-.25-.83,.27-1.81,.25-.95-.02-1.37-.51-1.71-.27-.17,.12-.34,.43-.15,1.36-.66-.11-1.19,.36-1.19,.8,0,.35,.35,.73,.85,.81Z"/>
      <path class="cls-6" d="M9.5,4.1c-.49-2.64,1.3-3.87,2.86-3.85,1.54,.02,3.21,1.15,2.79,3.85"/>
    </g>
    <path class="cls-8" d="M12.37,.49h-.03c-.79-.01-1.56,.33-2.05,.91-.5,.59-.72,1.43-.58,2.39,.12-.05,.27-.08,.4-.09-.09-.67,.02-1.11,.32-1.31,.29-.19,.57-.08,.88,.03,.25,.09,.56,.19,.98,.2,.42,0,.74-.08,1.01-.18,.31-.11,.6-.22,.91-.03,.36,.21,.52,.68,.49,1.45,.07,0,.15,.01,.22,.03,.13-1.05-.06-1.92-.58-2.52-.47-.55-1.19-.88-1.99-.88Z"/>
  </g>
  <polyline class="cls-2" points="11.67 21.87 11.33 23.48 17.79 23.48 17.05 20.48"/>
  <path class="cls-7" d="M19.85,24.07c-.21-.33-.49-.5-.64-.58H9.81c-.15,.08-.43,.25-.64,.58-.35,.54-.27,1.11-.24,1.26h11.16c.03-.15,.11-.71-.24-1.26Z"/>
  <path class="cls-8" d="M12.12,21.95c-.1,0-.19-.03-.29-.05l-.29,1.4h6.03s-.66-2.65-.66-2.65c0,0-3.44,0-3.44,0,.02,.05,.04,.22,.04,.25,0,.25-.13,.47-.31,.64-.19,.18-.43,.29-.68,.35-.13,.03-.26,.05-.4,.05Z"/>
</svg>