<?xml version="1.0" encoding="UTF-8"?>
<svg id="Layer_1" data-name="Layer 1" xmlns="http://www.w3.org/2000/svg" viewBox="0 0 356.47 227.31">
  <defs>
    <style>
      .cls-1 {
        fill: #009245;
      }

      .cls-2 {
        fill: #0071bc;
      }

      .cls-3 {
        fill: #7ac943;
        stroke: #009245;
        stroke-miterlimit: 10;
        stroke-width: 8px;
      }
    </style>
  </defs>
  <path class="cls-3" d="M60.66,143.76c10.99-39.69,44.49-65.81,78.07-64.48,20.59,.82,40.93,10.24,55.31,24.94,11.09,11.34,20.72,32.22,4.73,44.11-11.5,8.55-32.54,2.65-31.89-13.62,.54-13.49,12.66-25.21,23.39-31.8,13.93-8.56,31.08-12.89,47.27-9.33,22.6,4.97,40.53,27.33,44.19,55.18"/>
  <path class="cls-1" d="M154.15,38c-2.9,7.73-10.34,13.26-19.07,13.26-11.23,0-20.37-9.14-20.37-20.37s9.14-20.37,20.37-20.37c.58,0,1.15,.04,1.72,.09-2.04-3.49-4.05-7.02-6.04-10.6-15.17,2.11-26.9,15.14-26.9,30.88,0,17.21,14,31.22,31.22,31.22,10.94,0,20.57-5.67,26.14-14.21-2.42-3.25-4.77-6.55-7.08-9.89Z"/>
  <path class="cls-1" d="M254.49,47.73c-2.21,5.9-7.89,10.11-14.55,10.11-8.57,0-15.54-6.97-15.54-15.54s6.97-15.54,15.54-15.54c.44,0,.88,.03,1.31,.07-1.56-2.66-3.09-5.36-4.6-8.08-11.58,1.61-20.52,11.55-20.52,23.56,0,13.13,10.68,23.81,23.81,23.81,8.35,0,15.69-4.32,19.94-10.84-1.84-2.48-3.64-5-5.4-7.54Z"/>
  <g>
    <path class="cls-2" d="M0,198.62c2.81-10.29,5.63-20.58,8.44-30.87,1.05-3.83,3.11-6.62,6.14-8.41,3.04-1.79,6.43-2.2,10.22-1.25,4.5,1.13,7.47,3.98,8.97,8.63,2.01-1.84,3.97-3.05,5.88-3.61,1.92-.56,4.12-.56,6.62-.02,3.96,.85,6.75,2.7,8.39,5.59,1.64,2.89,2.02,6.65,1.12,11.29-1.96,10.1-3.93,20.2-5.89,30.3-4.7-.91-9.4-1.88-14.08-2.89,2.04-9.41,4.07-18.82,6.11-28.23,.3-1.4,.39-2.35,.25-2.86-.13-.51-.55-.83-1.25-.99-1.32-.29-2.22,.64-2.7,2.8-2.11,9.47-4.21,18.94-6.32,28.41-4.68-1.04-9.36-2.13-14.02-3.27,2.29-9.35,4.58-18.7,6.86-28.05,.33-1.37,.44-2.31,.31-2.84-.13-.52-.54-.87-1.24-1.04-1.31-.32-2.26,.66-2.83,2.95-2.34,9.34-4.69,18.67-7.03,28.01-4.66-1.17-9.31-2.39-13.95-3.66Z"/>
    <path class="cls-2" d="M75.72,181.95c-1.74,10.67-3.47,21.34-5.21,32-4.35-.71-8.69-1.46-13.03-2.25,1.94-10.63,3.88-21.27,5.83-31.9,4.13,.75,8.27,1.47,12.41,2.14Zm-3.71-15.3c1.64,.28,2.97,1.1,3.99,2.44,1.01,1.34,1.4,2.8,1.15,4.36-.27,1.67-1.07,2.95-2.4,3.82-1.33,.88-2.91,1.16-4.71,.85-1.81-.31-3.2-1.11-4.16-2.38-.96-1.27-1.29-2.75-.98-4.41,.28-1.56,1.14-2.8,2.54-3.72,1.41-.92,2.93-1.24,4.57-.96Z"/>
    <path class="cls-2" d="M109.33,219.14c-4.37-.46-8.75-.96-13.11-1.5,.75-6.06,1.5-12.11,2.25-18.17,.23-1.85-.46-2.87-2.07-3.08-1.58-.2-2.5,.62-2.74,2.47-.79,6.05-1.59,12.1-2.38,18.15-4.36-.57-8.72-1.19-13.08-1.85,.9-5.96,1.8-11.92,2.7-17.88,.63-4.18,2.62-7.48,5.91-9.93,3.29-2.45,6.99-3.4,11.14-2.87,4.75,.61,8.36,2.71,10.89,6.37,1.98,2.85,2.75,6.6,2.26,11.26-.59,5.67-1.18,11.34-1.78,17.02Z"/>
    <path class="cls-2" d="M141.27,177.24c4.1,.25,8.21,.46,12.31,.63-.38,9-.75,18-1.13,27-.21,4.96-1.75,8.95-4.7,11.93-1.69,1.72-3.82,3.05-6.38,3.96-2.55,.92-5.16,1.29-7.79,1.11-5.24-.36-9.53-2.34-12.8-5.89-3.28-3.55-4.65-7.7-4.2-12.4,.44-4.56,2.55-8.32,6.25-11.35,3.71-3.03,7.84-4.36,12.48-4.04,.74,.05,1.85,.19,3.34,.42-.29,4.46-.57,8.91-.86,13.37-1-.85-2.02-1.31-3.06-1.38-1.32-.09-2.48,.29-3.49,1.14-1.01,.85-1.57,1.92-1.67,3.22-.1,1.25,.31,2.37,1.24,3.34,.92,.97,2.08,1.51,3.46,1.6,3.32,.23,5.12-1.83,5.38-6.14,.54-8.84,1.08-17.68,1.62-26.52Z"/>
    <path class="cls-2" d="M160.99,178.14c5.45,.16,10.89,.26,16.34,.28,9.67,.03,14.58,3.65,14.73,11.18,.07,3.73-1.57,6.87-4.97,9.37,4.98,2.01,7.57,5.61,7.69,10.9,.09,4.05-1.33,7.32-4.31,9.77-1.46,1.17-3.03,1.99-4.72,2.46-1.69,.47-3.96,.71-6.83,.7-.9,0-1.81,0-2.71-.01,.02-3.8,.04-7.61,.07-11.41,.8,0,1.59,0,2.39,0,1.41,0,2.4-.17,2.98-.51,.58-.34,.86-.93,.86-1.77,0-1.43-1.18-2.14-3.52-2.14-.9,0-1.79,0-2.69-.01,.02-3.95,.05-7.89,.07-11.84,2.53,.01,3.79-.82,3.79-2.49,0-1.54-1.13-2.31-3.39-2.32-.84,0-1.68-.01-2.52-.02-.1,10.83-.2,21.66-.3,32.49-4.77-.04-9.54-.14-14.3-.28,.44-14.79,.89-29.58,1.33-44.37Z"/>
    <path class="cls-2" d="M217.25,189.01c.25,4.33,.49,8.66,.74,12.99-.92-.43-1.74-.62-2.46-.58-2.32,.12-3.4,1.87-3.24,5.24,.25,5.12,.49,10.24,.74,15.37-4.39,.21-8.78,.38-13.17,.51-.17-5.91-.34-11.81-.51-17.72-.13-4.68,1.1-8.45,3.66-11.33,2.56-2.88,6.01-4.41,10.41-4.63,.98-.05,2.26,0,3.84,.15Z"/>
    <path class="cls-2" d="M233.48,188.21c.89,10.77,1.77,21.54,2.66,32.32-4.38,.36-8.76,.68-13.15,.95-.68-10.79-1.36-21.57-2.03-32.36,4.18-.26,8.35-.57,12.53-.91Zm-7.27-13.95c1.66-.12,3.14,.35,4.44,1.41,1.3,1.06,2.03,2.38,2.16,3.95,.14,1.69-.33,3.12-1.4,4.29-1.08,1.17-2.53,1.83-4.35,1.96-1.82,.13-3.36-.31-4.59-1.31-1.24-1-1.9-2.36-2.01-4.04-.1-1.58,.43-2.99,1.56-4.22,1.14-1.24,2.53-1.91,4.19-2.03Z"/>
    <path class="cls-2" d="M259.87,173.44c4.08-.51,8.16-1.07,12.24-1.66,1.3,8.91,2.59,17.83,3.89,26.74,.72,4.91-.07,9.12-2.42,12.6-1.35,2.01-3.2,3.7-5.54,5.08-2.34,1.38-4.84,2.22-7.46,2.53-5.22,.62-9.8-.54-13.68-3.42-3.88-2.89-6-6.71-6.42-11.41-.41-4.56,.96-8.65,4.04-12.31,3.09-3.66,6.9-5.74,11.53-6.28,.73-.09,1.85-.15,3.36-.21,.54,4.43,1.09,8.87,1.63,13.3-1.14-.65-2.23-.91-3.27-.79-1.31,.15-2.39,.74-3.23,1.76-.84,1.02-1.19,2.18-1.05,3.47,.14,1.25,.75,2.27,1.83,3.05,1.09,.78,2.32,1.1,3.7,.93,3.31-.39,4.7-2.75,4.15-7.03-1.11-8.79-2.21-17.58-3.32-26.36Z"/>
    <path class="cls-2" d="M301.5,198.37c.67,3.66,1.35,7.31,2.02,10.97-1.76,.99-3.49,1.63-5.21,1.93-4.2,.74-8.01-.14-11.37-2.61-3.37-2.47-5.35-5.85-5.99-10.09-.7-4.59,.42-8.71,3.28-12.4,2.86-3.69,6.69-5.95,11.54-6.82,2.58-.47,5.15-.43,7.7,.12,2.56,.54,4.68,1.51,6.38,2.92,2.83,2.33,4.81,6.12,5.91,11.41,.72,3.48,1.44,6.96,2.17,10.45,1.18,5.67,.38,10.64-2.47,14.89-2.85,4.25-7.2,6.93-12.96,7.96-1.76,.31-4.05,.3-6.86-.04-.61-3.64-1.22-7.27-1.83-10.91,1.85,.57,3.65,.7,5.4,.39,2.36-.41,4.05-1.46,5.07-3.11,1.02-1.65,1.27-3.8,.78-6.45-.75-4-1.5-7.99-2.24-11.99-.63-3.35-2.37-4.75-5.22-4.23-1.21,.22-2.2,.85-2.95,1.9-.76,1.05-1.04,2.15-.84,3.3,.21,1.22,.82,2.16,1.84,2.82,1.02,.66,2.18,.87,3.48,.64,.87-.16,1.66-.5,2.39-1.03Z"/>
    <path class="cls-2" d="M356.47,184.92c-6.35,1.73-12.71,3.37-19.1,4.92-.51-.84-.86-1.63-1.04-2.39-.25-1.05-.3-2.14-.15-3.24,2.12-.51,4.24-1.04,6.36-1.57-1.04-2.22-2.71-3.04-5.04-2.46-1.55,.38-2.66,1.31-3.34,2.8-.68,1.49-.79,3.21-.33,5.18,.48,2.05,1.36,3.59,2.62,4.63,1.26,1.04,2.68,1.36,4.24,.98,1.27-.31,2.35-1.2,3.22-2.68,3.08,2.09,6.19,4.15,9.32,6.2-2.75,3.35-6.25,5.55-10.43,6.58-5.11,1.25-9.79,.67-13.95-1.7-4.17-2.38-6.73-5.92-7.73-10.59-1-4.64-.14-8.93,2.52-12.88,2.65-3.95,6.38-6.49,11.23-7.68,4.74-1.16,9.1-.64,13.16,1.59,4.06,2.23,6.74,5.58,7.97,10.1,.13,.46,.28,1.2,.47,2.23Z"/>
  </g>
</svg>