<?xml version="1.0" encoding="UTF-8"?>
<svg id="Layer_1" data-name="Layer 1" xmlns="http://www.w3.org/2000/svg" viewBox="0 0 28.28 24.48">
  <defs>
    <style>
      .cls-1 {
        stroke: #0e9606;
      }

      .cls-1, .cls-2 {
        fill: none;
        stroke-miterlimit: 10;
      }

      .cls-2 {
        stroke: #000;
      }
    </style>
  </defs>
  <path class="cls-1" d="M12.14,4.15V.85c0-.19,.15-.35,.33-.35h3.36c.18,0,.33,.16,.33,.35v3.3c0,.19,.15,.35,.33,.35h2.65c.18,0,.33,.16,.33,.35v3.21c0,.19-.15,.35-.33,.35h-2.51c-.18,0-.33,.16-.33,.35v3.23c0,.19-.15,.35-.33,.35h-3.5c-.18,0-.33-.16-.33-.35v-3.21c0-.19-.15-.35-.33-.35h-2.65c-.18,0-.33-.16-.33-.35v-3.18c0-.19,.15-.35,.33-.35l2.66-.04c.18,0,.33-.16,.33-.35Z"/>
  <path d="M11.96,21.46h0c-.15-1.85-.71-3.34-1.58-4.21-.86-.86-1.24-1.03-2.36-1.52-.55-.24-1.36-.83-1.7-1.36-.24-.37-.47-.68-.71-.93-.53-.57-.75-.63-.84-.6-.23,.05-.41,.22-.41,.22,0,0-.19,.2-.25,.56,.04,.24,.82,1.68,2.46,3.58,.17,.24,.13,.58-.09,.78-.22,.2-.56,.2-.78-.01-1.92-1.71-2.92-3.53-2.72-4.57,.14-.72,.54-1.14,.59-1.18,.04-.04,.42-.39,.97-.51,.87-.19,1.61,.61,1.92,.94,.28,.31,.55,.66,.83,1.1,.18,.28,.77,.74,1.19,.92,1.17,.51,1.7,.74,2.72,1.76,1.43,1.43,1.82,3.71,1.92,4.94l-1.15,.1Z"/>
  <path d="M2.98,13.12c.04-1.2-.09-2.91-.94-4.64-.15-.31-.32-.59-.48-.85-.07,.13-.17,.35-.27,.62-.17,.47-.16,.65-.3,.76-.13,.1-.39,.13-.99-.23,.05-.4,.18-1.01,.58-1.58,.17-.24,.54-.78,1-.78h0c.87,0,1.63,.93,2.52,5.42-.38,.43-.75,.86-1.13,1.29Z"/>
  <path d="M7.11,22.02l-3.27-2.07c-1.19-.79-2.03-2.06-2.3-3.49,0,0-.79-3.09-.78-4.25,.05-.28,.26-.49,.52-.53,.24-.03,.48,.08,.61,.3l.78,4.24c.21,1.11,.86,2.09,1.78,2.7l3.26,2.07-.6,1.03Z"/>
  <path class="cls-2" d="M6.98,22.1v1.25c0,.35,.27,.63,.61,.63h5.06c.34,0,.61-.28,.61-.63v-1.31c0-.35-.28-.64-.62-.63l-5.06,.06c-.33,0-.6,.29-.6,.63Z"/>
  <ellipse cx=".98" cy="10.73" rx=".56" ry=".59"/>
  <path d="M16.32,21.46h0c.15-1.85,.71-3.34,1.58-4.21,.86-.86,1.24-1.03,2.36-1.52,.55-.24,1.36-.83,1.7-1.36,.24-.37,.47-.68,.71-.93,.53-.57,.75-.63,.84-.6,.23,.05,.41,.22,.41,.22,0,0,.19,.2,.25,.56-.04,.24-.82,1.68-2.46,3.58-.17,.24-.13,.58,.09,.78,.22,.2,.56,.2,.78-.01,1.92-1.71,2.92-3.53,2.72-4.57-.14-.72-.54-1.14-.59-1.18-.04-.04-.42-.39-.97-.51-.87-.19-1.61,.61-1.92,.94-.28,.31-.55,.66-.83,1.1-.18,.28-.77,.74-1.19,.92-1.17,.51-1.7,.74-2.72,1.76-1.43,1.43-1.82,3.71-1.92,4.94l1.15,.1Z"/>
  <path d="M25.31,13.12c-.04-1.2,.09-2.91,.94-4.64,.15-.31,.32-.59,.48-.85,.07,.13,.17,.35,.27,.62,.17,.47,.16,.65,.3,.76,.13,.1,.39,.13,.99-.23-.05-.4-.18-1.01-.58-1.58-.17-.24-.54-.78-1-.78h0c-.87,0-1.63,.93-2.52,5.42,.38,.43,.75,.86,1.13,1.29Z"/>
  <path d="M21.18,22.02l3.27-2.07c1.19-.79,2.03-2.06,2.3-3.49,0,0,.79-3.09,.78-4.25-.05-.28-.26-.49-.52-.53-.24-.03-.48,.08-.61,.3l-.78,4.24c-.21,1.11-.86,2.09-1.78,2.7l-3.26,2.07,.6,1.03Z"/>
  <path class="cls-2" d="M21.3,22.1v1.25c0,.35-.27,.63-.61,.63h-5.06c-.34,0-.61-.28-.61-.63v-1.31c0-.35,.28-.64,.62-.63l5.06,.06c.33,0,.6,.29,.6,.63Z"/>
  <ellipse cx="27.3" cy="10.73" rx=".56" ry=".59"/>
</svg>