<svg width="63" height="21" viewBox="0 0 63 21" fill="none" xmlns="http://www.w3.org/2000/svg">
<path d="M3.416 3.968H4.942V5.13C4.942 5.97933 4.81133 6.78667 4.55 7.552C4.298 8.308 3.906 8.97067 3.374 9.54C2.842 10.1093 2.16533 10.534 1.344 10.814L0.364 9.358C1.092 9.106 1.68 8.76533 2.128 8.336C2.576 7.89733 2.90267 7.398 3.108 6.838C3.31333 6.278 3.416 5.70867 3.416 5.13V3.968ZM3.794 3.968H5.292V5.298C5.292 5.69 5.348 6.07267 5.46 6.446C5.58133 6.81933 5.75867 7.16933 5.992 7.496C6.22533 7.82267 6.524 8.11667 6.888 8.378C7.252 8.63 7.69067 8.83533 8.204 8.994L7.238 10.45C6.454 10.1887 5.80533 9.80133 5.292 9.288C4.788 8.77467 4.41 8.17733 4.158 7.496C3.91533 6.81467 3.794 6.082 3.794 5.298V3.968ZM8.904 3.282H10.766V10.94H8.904V3.282ZM10.262 6.278H12.488V7.818H10.262V6.278ZM6.538 11.234C7.44333 11.234 8.22267 11.3367 8.876 11.542C9.52933 11.738 10.0333 12.0227 10.388 12.396C10.7427 12.76 10.92 13.208 10.92 13.74C10.92 14.2627 10.7427 14.7107 10.388 15.084C10.0333 15.4573 9.52933 15.742 8.876 15.938C8.22267 16.1433 7.44333 16.246 6.538 16.246C5.642 16.246 4.86267 16.1433 4.2 15.938C3.54667 15.742 3.038 15.4573 2.674 15.084C2.31933 14.7107 2.142 14.2627 2.142 13.74C2.142 13.208 2.31933 12.76 2.674 12.396C3.038 12.0227 3.54667 11.738 4.2 11.542C4.86267 11.3367 5.642 11.234 6.538 11.234ZM6.538 12.676C5.98733 12.676 5.52533 12.718 5.152 12.802C4.77867 12.8767 4.494 12.9933 4.298 13.152C4.102 13.3013 4.004 13.4973 4.004 13.74C4.004 13.9733 4.102 14.1693 4.298 14.328C4.494 14.4867 4.77867 14.608 5.152 14.692C5.52533 14.7667 5.98733 14.804 6.538 14.804C7.08867 14.804 7.55067 14.7667 7.924 14.692C8.30667 14.608 8.59133 14.4867 8.778 14.328C8.974 14.1693 9.072 13.9733 9.072 13.74C9.072 13.4973 8.974 13.3013 8.778 13.152C8.59133 12.9933 8.30667 12.8767 7.924 12.802C7.55067 12.718 7.08867 12.676 6.538 12.676ZM18.5489 7.636H20.7049V9.148H18.5489V7.636ZM15.7909 4.402H17.2049V6.572C17.2049 7.30933 17.1536 8.03267 17.0509 8.742C16.9482 9.45133 16.7802 10.1187 16.5469 10.744C16.3229 11.3693 16.0242 11.934 15.6509 12.438C15.2869 12.9327 14.8436 13.3387 14.3209 13.656L13.2009 12.256C13.6862 11.9667 14.0922 11.612 14.4189 11.192C14.7456 10.772 15.0116 10.31 15.2169 9.806C15.4222 9.302 15.5669 8.77933 15.6509 8.238C15.7442 7.68733 15.7909 7.132 15.7909 6.572V4.402ZM16.1969 4.402H17.5829V6.488C17.5829 7.02 17.6202 7.54733 17.6949 8.07C17.7789 8.59267 17.9096 9.092 18.0869 9.568C18.2642 10.044 18.4976 10.4827 18.7869 10.884C19.0856 11.2853 19.4589 11.6307 19.9069 11.92L18.8849 13.376C18.3809 13.0587 17.9516 12.6573 17.5969 12.172C17.2516 11.6773 16.9762 11.122 16.7709 10.506C16.5656 9.89 16.4162 9.24133 16.3229 8.56C16.2389 7.87867 16.1969 7.188 16.1969 6.488V4.402ZM22.8049 3.268H24.5829V16.232H22.8049V3.268ZM20.1729 3.478H21.9089V15.658H20.1729V3.478ZM26.3318 13.222H38.0778V14.734H26.3318V13.222ZM31.2598 10.45H33.1078V13.586H31.2598V10.45ZM27.5638 4.094H29.4258V6.096H34.9418V4.094H36.7898V10.842H27.5638V4.094ZM29.4258 7.552V9.358H34.9418V7.552H29.4258ZM48.1427 3.268H50.0047V16.232H48.1427V3.268ZM44.3207 4.612H46.1547C46.1547 5.60133 46.0567 6.54867 45.8607 7.454C45.6741 8.35 45.3567 9.19467 44.9087 9.988C44.4701 10.7813 43.8634 11.5187 43.0887 12.2C42.3234 12.872 41.3667 13.488 40.2187 14.048L39.2387 12.578C40.4894 11.9713 41.4834 11.304 42.2207 10.576C42.9674 9.83867 43.5041 9.008 43.8307 8.084C44.1574 7.15067 44.3207 6.10533 44.3207 4.948V4.612ZM39.9387 4.612H45.1887V6.096H39.9387V4.612Z" fill="#34384D"/>
<path d="M0 20.0001H60L55.0345 13.7932" stroke="#34384D" stroke-width="2"/>
</svg>
