<svg width="49" height="38" viewBox="0 0 49 38" fill="none" xmlns="http://www.w3.org/2000/svg">
<path d="M32 1C33.6567 1.00013 35 2.34322 35 4V20.1787C34.9998 21.8353 33.6566 23.1786 32 23.1787H13.3623L6.25391 29V23.1787H4C2.34326 23.1787 1.00019 21.8354 1 20.1787V4C1 2.34315 2.34315 1 4 1H32Z" fill="white"/>
<path d="M32 1L32.0001 0H32V1ZM35 20.1787L36 20.1788V20.1787H35ZM32 23.1787L32 24.1787L32.0001 24.1787L32 23.1787ZM13.3623 23.1787V22.1787H13.0051L12.7287 22.405L13.3623 23.1787ZM6.25391 29H5.25391V31.1115L6.88749 29.7737L6.25391 29ZM6.25391 23.1787H7.25391V22.1787H6.25391V23.1787ZM4 23.1787L4 24.1787H4V23.1787ZM1 20.1787L-6.62847e-09 20.1787L6.62847e-09 20.1788L1 20.1787ZM1 4L0 4V4H1ZM4 1L4 0L4 1ZM32 1L31.9999 2C33.1045 2.00009 34 2.89559 34 4H35H36C36 1.79086 34.209 0.000170336 32.0001 2.97316e-09L32 1ZM35 4H34V20.1787H35H36V4H35ZM35 20.1787L34 20.1786C33.9999 21.2831 33.1043 22.1786 31.9999 22.1787L32 23.1787L32.0001 24.1787C34.209 24.1785 35.9997 22.3876 36 20.1788L35 20.1787ZM32 23.1787V22.1787H13.3623V23.1787V24.1787H32V23.1787ZM13.3623 23.1787L12.7287 22.405L5.62032 28.2263L6.25391 29L6.88749 29.7737L13.9959 23.9524L13.3623 23.1787ZM6.25391 29H7.25391V23.1787H6.25391H5.25391V29H6.25391ZM6.25391 23.1787V22.1787H4V23.1787V24.1787H6.25391V23.1787ZM4 23.1787L4 22.1787C2.89566 22.1787 2.00013 21.2832 2 20.1786L1 20.1787L6.62847e-09 20.1788C0.000254322 22.3876 1.79086 24.1787 4 24.1787L4 23.1787ZM1 20.1787H2V4H1H0V20.1787H1ZM1 4L2 4C2 2.89543 2.89543 2 4 2L4 1L4 0C1.79086 7.63716e-09 1.15163e-06 1.79086 0 4L1 4ZM4 1V2H32V1V0H4V1Z" fill="#F84D45"/>
<rect x="5" y="11" width="27" height="1" rx="0.5" fill="#F84D45"/>
<rect x="5" y="14" width="27" height="1" rx="0.5" fill="#F84D45"/>
<rect x="5" y="17" width="9" height="1" rx="0.5" fill="#F84D45"/>
<path d="M13.3576 4.36364V8H12.6935L11.1115 5.71129H11.0849V8H10.3161V4.36364H10.9908L12.5604 6.65057H12.5923V4.36364H13.3576ZM13.9928 8V4.36364H16.4431V4.99751H14.7616V5.86399H16.317V6.49787H14.7616V7.36612H16.4502V8H13.9928ZM17.8729 8L16.8324 4.36364H17.6722L18.2741 6.89027H18.3043L18.9684 4.36364H19.6875L20.3498 6.8956H20.3817L20.9837 4.36364H21.8235L20.783 8H20.0337L19.3413 5.62251H19.3129L18.6222 8H17.8729ZM24.1735 5.40945C24.1593 5.26622 24.0983 5.15495 23.9906 5.07564C23.8829 4.99633 23.7367 4.95668 23.552 4.95668C23.4266 4.95668 23.3206 4.97443 23.2342 5.00994C23.1478 5.04427 23.0815 5.09221 23.0353 5.15376C22.9904 5.21532 22.9679 5.28516 22.9679 5.36328C22.9655 5.42839 22.9791 5.4852 23.0087 5.53374C23.0395 5.58227 23.0815 5.62429 23.1348 5.6598C23.188 5.69413 23.2496 5.72431 23.3194 5.75036C23.3893 5.77521 23.4638 5.79652 23.5431 5.81428L23.8699 5.8924C24.0285 5.92791 24.1741 5.97526 24.3066 6.03445C24.4392 6.09363 24.554 6.16643 24.6511 6.25284C24.7482 6.33925 24.8233 6.44105 24.8766 6.55824C24.931 6.67543 24.9589 6.80978 24.96 6.96129C24.9589 7.18383 24.902 7.37678 24.7896 7.54013C24.6783 7.7023 24.5173 7.82836 24.3066 7.91832C24.0971 8.0071 23.8444 8.05149 23.5485 8.05149C23.2549 8.05149 22.9992 8.00651 22.7814 7.91655C22.5648 7.82659 22.3955 7.69342 22.2736 7.51705C22.1529 7.33949 22.0895 7.11991 22.0836 6.85831H22.8276C22.8359 6.98023 22.8708 7.08203 22.9324 7.16371C22.9951 7.2442 23.0785 7.30516 23.1827 7.34659C23.2881 7.38684 23.407 7.40696 23.5396 7.40696C23.6698 7.40696 23.7828 7.38802 23.8787 7.35014C23.9758 7.31226 24.051 7.25959 24.1042 7.19212C24.1575 7.12464 24.1841 7.04711 24.1841 6.95952C24.1841 6.87784 24.1599 6.80919 24.1113 6.75355C24.064 6.69792 23.9941 6.65057 23.9018 6.61151C23.8107 6.57244 23.6988 6.53693 23.5662 6.50497L23.1703 6.40554C22.8637 6.33097 22.6216 6.21437 22.4441 6.05575C22.2665 5.89714 22.1783 5.68348 22.1795 5.41477C22.1783 5.1946 22.2369 5.00225 22.3553 4.83771C22.4748 4.67318 22.6388 4.54474 22.8471 4.45241C23.0555 4.36009 23.2922 4.31392 23.5574 4.31392C23.8272 4.31392 24.0628 4.36009 24.264 4.45241C24.4664 4.54474 24.6239 4.67318 24.7363 4.83771C24.8488 5.00225 24.9068 5.19283 24.9103 5.40945H24.1735Z" fill="#F84D45"/>
<path d="M46 10C47.6569 10 49 11.3431 49 13V29.1787C48.9998 30.8354 47.6567 32.1787 46 32.1787H44.8271V38L39.1816 32.1787H25C23.3434 32.1786 22.0002 30.8353 22 29.1787V25H34C35.6569 25 37 23.6569 37 22V10H46Z" fill="#F84D45"/>
</svg>
