<?xml version="1.0" encoding="UTF-8"?>
<svg id="Layer_1" data-name="Layer 1" xmlns="http://www.w3.org/2000/svg" viewBox="0 0 31.18 21.66">
  <defs>
    <style>
      .cls-1 {
        fill: none;
        stroke: #000;
        stroke-miterlimit: 10;
      }

      .cls-2 {
        fill: #f71919;
      }
    </style>
  </defs>
  <path d="M12.89,12.93c.51-.81,.22-1.66,.16-1.82-.39-.97-1.34-1.21-1.45-1.23H6.11s3.18-7.63,3.18-7.63l-.03-.16c-.02-.14-.26-1.38-1.43-1.89-.98-.43-2.17-.13-2.91,.73L.74,10.35c-.22,.64-2.02,6.33,.96,9.55,.46,.5,1.54,1.66,3.26,1.75,.04,0,.08,0,.12,0,1.43,0,2.97-1.27,3.54-1.75l.04,.04c.14-.16,.32-.37,.35-.59l1.48,.12,.14-.07c.41-.2,1.12-.81,1.2-1.77,.03-.35-.04-.65-.13-.91,.25-.08,.51-.22,.75-.45,.38-.37,.59-.89,.59-1.45,0-.52-.22-1.01-.57-1.42,.17-.13,.32-.29,.43-.47Zm-1.59,.94c.37,.23,.59,.59,.59,.95,0,.15-.03,.43-.25,.64-.24,.24-.58,.24-.75,.23l-3.59-.49-.15,1.13,3.26,.44c.12,.14,.3,.41,.27,.78-.03,.4-.3,.65-.46,.77l-3.16-.25-.09,1.13,.64,.05c-1.35,1.07-2.16,1.3-2.6,1.27-1.26-.06-2.09-.96-2.48-1.39C0,16.39,1.62,11.29,1.8,10.76L5.84,1.6c.41-.43,1.03-.59,1.54-.37,.47,.2,.66,.66,.73,.89l-3.22,7.73h-.04s0,.09,0,.09v.03s0,0,0,0v1.02h6.56c.12,.04,.45,.18,.59,.53,0,0,.16,.43-.06,.8-.21,.33-.64,.48-1.07,.39v.03s-3.23-.22-3.23-.22l-.06,1.14,3.2,.17c.12,.02,.23,.04,.35,.04,.04,0,.08-.01,.12-.01h.07Z"/>
  <path class="cls-1" d="M2.85,4.32s3.73,.97,6.56,3.41c1.02,.88,2.34,1.39,3.68,1.27,1.66-.15,2.5-1.03,2.5-1.03"/>
  <path d="M18.73,13.4c-.35,.41-.57,.9-.57,1.42,0,.56,.21,1.08,.59,1.45,.24,.23,.5,.37,.75,.45-.1,.26-.16,.56-.13,.91,.08,.96,.79,1.56,1.2,1.77l.14,.07,1.48-.12c.03,.23,.21,.43,.35,.59l.04-.04c.57,.48,2.11,1.75,3.54,1.75,.04,0,.08,0,.12,0,1.73-.08,2.8-1.25,3.26-1.75,2.98-3.22,1.17-8.91,.96-9.55L26.26,.92c-.73-.85-1.92-1.15-2.91-.73-1.17,.51-1.41,1.75-1.43,1.89l-.03,.16,3.18,7.62h-5.49c-.11,.03-1.06,.27-1.45,1.24-.06,.17-.35,1.01,.16,1.82,.12,.18,.27,.34,.43,.47Zm1.23,.46s.08,.01,.12,.01c.11,0,.23-.02,.35-.04l3.2-.17-.06-1.14-3.22,.22v-.03c-.44,.1-.87-.06-1.07-.39-.23-.36-.07-.79-.06-.8,.14-.35,.47-.49,.59-.53h6.56s0-1.02,0-1.02h.01s-.01-.03-.01-.03v-.09s-.04,0-.04,0l-3.22-7.73c.07-.23,.26-.69,.73-.89,.5-.22,1.12-.07,1.54,.37l4.04,9.16c.18,.53,1.8,5.63-.73,8.37-.4,.43-1.22,1.32-2.48,1.39-.44,.03-1.26-.2-2.6-1.27l.64-.05-.09-1.13-3.16,.25c-.16-.12-.43-.37-.46-.77-.03-.36,.15-.64,.27-.78l3.26-.44-.15-1.13-3.59,.49c-.16,.01-.5,.01-.75-.23-.22-.21-.25-.49-.25-.64,0-.36,.22-.72,.59-.95h.07Z"/>
  <path class="cls-1" d="M28.34,4.32s-3.73,.97-6.56,3.41c-1.02,.88-2.34,1.39-3.68,1.27-1.66-.15-2.5-1.03-2.5-1.03"/>
  <path class="cls-2" d="M19.39,2.9c-.02-.09-.45-1.77-1.78-1.94-.78-.1-1.56,.36-2.01,1.15-.45-.79-1.24-1.25-2.01-1.15-1.33,.17-1.76,1.85-1.78,1.94-.15,.61-.04,1.12,0,1.33,.48,2.27,3.38,3.68,3.8,3.87,.41-.19,3.32-1.61,3.8-3.87,.04-.21,.15-.72,0-1.33Z"/>
</svg>